<?xml version="1.0" encoding="UTF-8"?>
<svg id="Layer_2" data-name="Layer 2" xmlns="http://www.w3.org/2000/svg" viewBox="0 0 822.92 1049.93">
  <defs>
    <style>
      .cls-1 {
        fill: #fff;
      }
    </style>
  </defs>
  <g id="Layer_1-2" data-name="Layer 1">
    <path class="cls-1" d="m542.75,130.69c-.86-5.79-1.58-10.58-2.29-15.36-.27.04-.55.08-.82.12-.42,3.25-.85,6.49-1.42,10.92-7.04-5.23-8.46-12.34-11.81-18.25-2.28,1.84-4.57,3.69-7.93,6.41-.31-4.06-.54-7.13-.82-10.84-8.58,4.76-17.21,8.69-26.86,8.07l-.26-1.31c10.66-4.16,21.31-8.31,32.48-12.66.3-2.35.7-5.43,1.28-9.99-10.33,5.19-19.58,9.83-28.83,14.47-.36-.23-.73-.46-1.09-.69.76-1.51,1.28-3.22,2.33-4.49,10.01-12.15,21.45-22.82,34.46-31.67,3.71-2.52,5.64-5.2,5.04-9.7-.18-1.32.36-2.74.56-4.12.44-.13.88-.26,1.32-.38.92,1.33,2.11,2.55,2.72,4.02,8.34,20.12,13.79,41,16,62.67.59,5.83,0,11.43-6.91,15.11,22.69,7.65,45.11,11.9,68.36,11.77,22.86-.13,45.18-4.04,67.97-10.81-7.86,19.9-95.6,52.85-117.67,45.1.95-1.39,1.8-2.64,3.09-4.54-6.06.78-11.61,1.5-17.16,2.21l-.47,1.62c13.54,5.8,26.83,12.32,40.68,17.26,29.88,10.66,60.58,17.2,92.59,13.89,18.42-1.91,35.59-7.36,49.35-20.51,3.46-3.3,6.11-7.44,9.28-11.06,1.04-1.19,2.56-1.96,3.86-2.92-.04,1.68.35,3.52-.19,5.03-4.85,13.69-12.3,25.86-22.41,36.27-20.9,21.52-46.22,33.3-76.42,33.96-1.84.04-3.7-.41-5.55-.64-.18-.61-.36-1.22-.54-1.84,5.03-2.28,10.05-4.55,15.08-6.83-30.99,3.26-61.18-1.59-92.57-7.37,1.67,1.03,2.24,1.51,2.89,1.75,29.84,10.99,59.55,22.35,89.57,32.81,22.04,7.68,44.79,11.69,68.31,8.14,1.17-.18,2.42.19,4.98.43-2.13,2.32-3.27,3.86-4.69,5.05-29.68,24.79-63.48,32.81-100.9,23.45-7.36-1.84-11.55.47-16.43,4.94,10.84,9.07,22.73,16.01,35.54,21.29,29.25,12.05,59.35,14.48,90.08,6.86,12.42-3.08,24.47-8.13,37.03-10.04,14.02-2.13,28.48-3.07,42.49,1.37,1.49.47,2.67,1.94,3.99,2.95-1.37.73-2.65,1.78-4.11,2.15-37.87,9.67-67.46,30.82-88.75,63.61-.83,1.27-2.56,1.95-3.87,2.91.21-1.66-.02-3.55.71-4.93,11.32-21.52,25.52-40.94,42.73-58.13,1.25-1.24,3.17-1.8,4.09-3.36-31.99,3.94-59.2,17.11-82.33,38.38-10.04,9.23-19.15,19.46-28.88,29.04-13.16,12.97-27.82,23.35-47.19,26.35,1.53.56,3.03,1.28,4.6,1.66,22.67,5.39,45.29,11,68.04,16.02,28.24,6.24,56.05,13.49,80.91,29.02,22.39,13.98,40.67,31.71,50.69,56.74,4.53,11.32,6.1,23.14,5.14,35.27-.13,1.6-.96,3.14-1.86,5.95-1.3-2.17-2.07-3.02-2.35-4.01-8.66-30.18-28.85-51.17-54.28-67.94-23.16-15.27-48.89-24.78-74.92-33.77-27.04-9.34-53.88-19.29-80.72-29.2-4.91-1.81-9.42-4.7-14.79-6.16,13.42,10.79,26.68,21.8,40.29,32.34,32.35,25.03,67.35,45.95,103.01,65.88,20.59,11.5,40.3,24.49,54.63,43.7,33.68,45.11,40.95,94.27,21.29,147.19-.61,1.63-1.85,3.03-2.8,4.54-.49-.14-.97-.29-1.46-.43-.13-1.36-.43-2.73-.36-4.08,2.54-55.65-27.81-103.47-79.42-124.36-18.61-7.53-37.58-14.19-56.81-21.41,1.26,1.56,2.48,2.99,3.6,4.49,43.57,58.36,56.14,122.23,33.15,191.91-8.08,24.5-22.14,45.45-43.16,61.08-4.65,3.46-9.82,6.25-14.85,9.17-1.42.82-3.21.99-4.83,1.46-.28-.38-.57-.77-.85-1.15,1.06-1.7,2-3.5,3.21-5.09,18.74-24.64,29.16-52.46,29.23-83.37.11-51.01-22.12-90.51-64.11-119.17-1.71-1.17-2.92-3.09-4.36-4.66,2.11.25,4.41.02,6.29.82,23.69,10.04,38.74,28.65,49.92,50.94,9.85,19.64,15.73,40.62,20.47,61.95.43,1.94.87,3.87,2.43,5.9.5-3.99,1.18-7.97,1.45-11.97,1.5-22.04-4.23-42.56-13.48-62.28-11.9-25.38-28.28-47.86-45.91-69.41-23.63-28.86-47.78-57.3-71.68-85.93-.52-.63-.81-1.44-1.74-1.79,7.91,19.42,13.75,39.08,15.13,59.82-.7.25-1.4.5-2.1.74-.61-1.65-1.56-3.26-1.77-4.96-2.19-18.16-6.91-35.62-14.64-52.19-2.95-6.33-6.57-12.33-9.72-18.57-.64-1.27-.52-2.92-.75-4.39,1.34.69,3.05,1.06,3.95,2.12,19.45,23.03,39.11,45.89,58.11,69.28,19.1,23.51,38.13,47.12,56.06,71.52,14.37,19.56,24.83,41.38,30.02,65.38,3.61,16.71,3.54,33.38-1.13,49.91-.46,1.63-1.31,3.14-1.98,4.71-.61.02-1.23.05-1.84.07-1.52-6.4-3.05-12.81-4.57-19.21,1.17,33.69-7.54,64.49-26.85,92.24.39.4.79.81,1.18,1.21,6.85-5.79,14.24-11.07,20.45-17.48,19.99-20.63,31.25-45.99,36.16-73.85,11.75-66.66-5.44-125.25-51.09-175.38-1.23-1.35-2.67-2.55-3.73-4.02-.57-.78-.55-1.99-.8-3,1.05.06,2.31-.24,3.1.24,4.13,2.48,7.89,5.75,12.26,7.66,12.93,5.68,25.93,11.31,39.2,16.14,19.96,7.25,39.72,14.69,55.84,29.18,27.31,24.55,42.47,55.01,44.6,91.79.05.83.11,1.65,1.07,2.82.56-1.71,1.19-3.4,1.67-5.14,15.24-54.25-2.19-122.08-59.22-158.73-18.61-11.96-38.06-22.62-57.1-33.93-51.67-30.7-98.56-67.54-141.13-109.92-.58-.58-1.21-1.1-2.5-2.26-1.47,4.5-2.88,8.49-4.08,12.54-10.72,36.09-13.59,73.12-10,110.29,4.02,41.72,10.02,83.26,15.62,124.82,4.79,35.51,8.9,71.03,8.48,107.11.88-4.34,1.81-8.67,2.63-13.02.83-4.42,1.59-8.85,2.29-13.29,4.36-27.67,6.18-55.54,7.61-83.5.4-7.78-2.64-13.32-4.62-19.79-.3-1,.3-2.27.48-3.42.94.7,2.39,1.2,2.76,2.13,7.62,19.34,21.23,34.46,34.76,49.65,10.75,12.07,21.73,24.05,28.82,38.76,17.96,37.22,15.46,73.41-6.25,108.41-.53.85-.97,1.87-1.74,2.41-.9.64-2.12.84-3.2,1.23.06-1.05-.27-2.34.23-3.1,18.02-27.52,10.91-54.77-2.1-81.09-8.08-16.34-19.07-31.23-28.18-47.1-5.94-10.36-10.85-21.32-16.21-32.01-.41-.82-.78-1.65-1.39-2.95-1.3,15.34-1.7,30.16-3.97,44.67-4.12,26.28-9.32,52.4-14.21,78.56-.28,1.47-1.81,2.71-2.76,4.06-.38-1.58-1.24-3.22-1.08-4.74,4.26-40.38,1.06-80.48-4.33-120.5-5.29-39.26-11.45-78.41-15.84-117.77-5.11-45.82-4.25-91.5,10.37-135.91,3.88-11.8,8.87-23.24,12.36-35.45-2.46,4.47-4.93,8.95-7.38,13.4-1.71-.9-3.74-1.96-6.13-3.21.26-.69.34-1.94.95-2.33,4.79-2.98,4.59-7.54,4.41-12.32-.58-15.55-5.76-29.55-13.93-43.1-13.29,5.46-24.33,13.48-34.56,25.33,7.88-1.37,14.25-2.42,20.6-3.59,2.92-.53,4.38.27,4.38,3.5,0,27.99.55,56.1-6.98,83.35-3.8,13.74-9.09,27.15-14.76,40.25-9.97,23.05-11.82,47.26-12.31,71.85-.4,20.3-.48,40.66-5.8,60.5-8.11,30.28-26.63,50.7-57.29,58.74-16.89,4.43-32.35.59-45.45-11.4-6-5.49-12.7-10.38-17.9-16.54-12.38-14.65-15.11-32.59-13.56-50.83,1.43-16.87-1.22-31.78-9.07-47.18-11.45-22.47-20-46.43-29.79-69.75-.68-1.62-1.47-3.19-3.31-4.64-.69,8.01-1.52,16.02-2.06,24.04-7.63,112.78,8.22,222.16,47.54,328.14.35.94.94,1.88.94,2.82,0,.81-.68,1.63-1.06,2.44-.69-.33-1.64-.48-2.03-1.02-.76-1.07-1.24-2.35-1.78-3.56-17.65-39.24-32.33-79.55-43.89-120.99-.35-1.27-.83-2.5-2.11-3.61,2.19,14.98,3.68,30.11,6.71,44.92,5.27,25.74,11.51,51.29,17.23,76.94.33,1.49-.28,3.2-.46,4.81-1.01-1.27-2.54-2.4-2.96-3.84-14.11-48.72-24.13-98.26-29.49-148.71-.35-3.3-.73-6.6-2.13-10.23-3.18,8.63-6.61,17.18-9.5,25.91-12.23,37.01-18.05,75-17.19,114.01.05,2.06-1,4.15-1.54,6.22-.74-2.11-2.12-4.23-2.12-6.34-.13-53.42,6.66-105.92,21.19-157.37.49-1.73.91-3.48,1.36-5.21-.4-.16-.81-.31-1.21-.47-3.69,9.09-8.19,17.94-10.9,27.31-5.08,17.57-9.08,35.44-13.65,53.16-.42,1.62-1.74,3-2.64,4.49-.29-1.78-1.05-3.63-.8-5.34,5.17-35.08,17.38-67.93,31.81-100.08,1.29-2.88,2.67-5.72,4.24-9.08-1.15.14-1.94.05-2.57.34-41.8,19.27-82.97,39.63-118.6,69.44-39.89,33.38-57.61,76.71-57.67,128.01,0,3.73,0,7.46.51,11.2,3.83-12.15,7.33-24.42,11.54-36.44,11.94-34.15,28.56-65.94,49.3-95.58.19-.27.34-.61.6-.79,1.23-.88,2.49-1.72,3.74-2.58-.05,1.63.33,3.42-.22,4.86-3.28,8.54-6.86,16.98-10.2,25.5-26.16,66.75-44.67,135.57-55.88,206.36-.08.49.02,1.09-.23,1.47-.78,1.2-1.69,2.32-2.55,3.47-.37-1.3-1.08-2.61-1.05-3.9.45-17.96,1-35.92,1.51-53.87.04-1.49-.12-2.99-.82-4.56-.64,5.42-1.39,10.83-1.9,16.26-.53,5.63-1.15,11.29-1.18,16.94-.11,19.97.07,39.94.02,59.91-.04,14.75-1.69,29.27-7.48,43.02-9.39,22.29-26.76,36.56-48.66,44.68-15.97,5.93-32.93,9.2-49.5,13.47-1.38.35-3.12-.74-4.7-1.15,1.45-.81,2.81-2.1,4.35-2.37,18.76-3.26,37.18-7.54,54.5-15.8,30.06-14.33,45.89-38.16,47.33-71.25.65-14.95.31-29.95.06-44.92-.44-25.9,2.09-51.5,6.13-77.06,1.34-8.46.79-17.25.77-25.88-.06-24.1,1.89-47.94,9.64-70.94,11.03-32.75,32.72-57.56,59.35-78.57,25.39-20.03,53.86-34.98,82.56-49.47,10.54-5.32,21.45-9.89,32.26-14.65,1.3-.57,3.05-.14,4.59-.17-.28,1.39-.44,2.82-.88,4.16-.89,2.68-3.91,4.99-.82,8.28.55.58-.6,2.76-.97,4.2-6.37,24.81-12.76,49.61-19.1,74.43-.32,1.25-.36,2.57.05,4.01,2.39-7.14,4.71-14.31,7.21-21.41,1.66-4.71,3.74-9.27,5.32-14,2.16-6.44,4.03-12.99,6.14-19.88h5.71c.17,1.23.62,2.81.57,4.36-.68,20.51,5.13,39.85,10.9,59.14,4.96,16.58,10.49,32.99,15.8,49.46.55,1.7,1.32,3.33,2.81,4.74-.49-2.04-.93-4.1-1.49-6.12-21.06-76.51-30.03-154.46-27.39-233.71.64-19.12,2.53-38.2,4.06-57.28.18-2.26,1.69-4.41,3.27-6.4-3.95-19.59-8.46-39.47-10.18-59.8.71-.18,1.42-.36,2.13-.54.57,1.64,1.42,3.24,1.65,4.92,3.95,28.09,9.33,55.96,19.22,82.54,8.63,23.2,19.42,45.61,29.28,68.36.1.23.52.33,2.33,1.41-1.73-7.54-2.25-14.28-4.79-20.14-19.6-45.19-32.75-92.15-39.69-140.88-.23-1.65-.57-3.33-.45-4.96.11-1.47.78-2.89,1.21-4.33.84,1.4,2.14,2.71,2.45,4.22.82,4.07.78,8.35,1.86,12.33,4.54,16.84,8.86,33.76,14.22,50.34,6.1,18.83,13.61,37.21,19.75,56.02,3.03,9.28,4.22,19.15,6.52,28.68.95,3.92,2.63,7.65,3.99,11.51,3.07-2.45,5.33-4.62,7.94-6.2,1.22-.74,3.12-.35,4.71-.48-.13,1.54,0,3.15-.44,4.61-2.9,9.86-6.23,19.61-8.75,29.57-.96,3.82-.16,8.08-.16,12.14.54.03,1.08.07,1.62.1,1.03-8.08,2.06-16.17,3.12-24.25.12-.94.41-1.87.75-2.75,1.21-3.14,2.47-6.27,3.73-9.39.61-1.51,1.25-2.99,1.88-4.49.93,1.43,2.3,2.74,2.73,4.31,3.15,11.38,6.41,22.75,9.04,34.26,2.22,9.73,3.58,19.64,5.43,29.46.71,3.76-.74,4.87-4.31,4.23-6.64-1.2-12.17-4.38-16.79-9.19-.89-.93-1.5-2.12-2.81-2.79-.29,17.59,3.73,33.88,16.24,46.15,7.39,7.25,18.22,9.34,28.58,10.75,40.63,5.5,60.61-24.02,63.19-55.08.45-5.44.04-10.98-.29-16.45-.2-3.27-1.02-6.49-1.76-10.94-1.11,6.19-1.57,11.24-2.97,16.01-3.44,11.77-13.8,19.87-24.31,19.54-5.42-.17-6.15-1.09-4.8-6.29,4.23-16.37,10.63-31.85,18.66-46.73,1.39-2.57,2.21-6.09,1.72-8.9-2.89-16.72-5.9-33.42-9.51-50-4.75-21.81-7.45-43.64-3.65-65.92-.48-.12-.96-.24-1.44-.36-5.74,19.16-11.47,38.33-17.21,57.49-.55-.06-1.09-.12-1.64-.19-.14-1.59-.62-3.23-.37-4.76,7.57-45.31,21.72-88.5,42.26-129.59.64-1.28,2.18-2.11,3.3-3.15.11,1.6.7,3.36.24,4.77-2.26,6.89-4.8,13.69-6.61,20.74,6.51-11.18,12.8-22.5,19.61-33.5,5.78-9.33,12.2-18.27,18.29-27.42,1.66-2.49,3.37-4.99,4.64-7.67,3.21-6.79,1.92-12.11-3.96-16.8-1.95-1.55-4.09-2.88-6.26-4.1-35.56-20-71.13-39.97-106.7-59.94-.84-.47-1.72-.9-3.34-1.74,1.77,10.11,5.11,19.31,4.64,28.94l-2.03.71c-2.15-5.22-4.3-10.43-6.45-15.65-1.1,25.87-6.64,50.22-20.6,72.78-12.97-27.93-31.9-49.67-60.69-63.08,2.4,22.45.47,44.07-6.95,65.39,2.48.76,4.49,1.39,6.5,2.01,10.17,3.12,18.43,8.99,25.4,16.97,2.11,2.41,4.79,4.54,7.61,6.08,26.24,14.38,40.55,37.23,46.84,65.73,4.8,21.75,3.77,43.69,1.62,65.63-.66,6.79-1.47,13.57-2.43,20.33-.17,1.18-1.41,2.2-2.15,3.3-.43-1.24-1.3-2.51-1.22-3.72,1.23-19.09,3.54-38.16,3.66-57.25.15-24.25-5.65-47.24-20.53-67.14-7.01-9.38-15.41-17.21-26.83-23.21.93,2.72,1.7,4.35,2,6.07.19,1.09-.32,2.31-.52,3.47-1.03-.62-2.32-1.02-3.03-1.9-2.07-2.57-3.91-5.33-5.48-7.52-3.39,2.51-6.18,5.57-9.64,6.93-7.5,2.94-15.37-.1-19.39-7.11-1.79-3.12-3.21-6.68-3.8-10.21-1.62-9.62-2.78-19.01.5-28.94,5.81-17.6,5.43-35.91,4.59-54.38-.36-7.96-3.59-13.48-7.04-19.64-25.7-45.79-34.75-94.57-26.18-146.49.26-1.6.73-3.16,2.48-5.54,8.83,10.11,17.49,20.37,26.54,30.28,9.32,10.2,18.83,20.24,28.61,30,9.64,9.64,19.71,18.85,30.44,27.68-.56-.98-1.06-1.99-1.69-2.92-17.15-25.03-24.07-52.78-21.65-82.85.97-12.07,1.82-24.3,4.49-36.05,3.96-17.45,13.69-31.66,28.81-41.73,1.45-.97,3.47-1.09,5.23-1.6-.73,1.61-1.1,3.57-2.26,4.78-17.94,18.67-28.37,41.03-31.72,66.47-1.69,12.82,1.23,25.51,4.5,37.97,4.24,16.14,10.83,31.34,18.16,46.51,1.07-8.69,1.56-17.1,3.23-25.27,3.5-17.14,11.58-32.1,22.92-45.43,6.88-8.08,13.22-16.62,19.81-24.95,3.49-4.42,6.99-8.84,10.52-13.28-8.75.96-17.32,2.43-25.94,2.68-8.39.24-16.89-.41-24.48-5.56,19.03-.05,37.34-2.53,54.68-10.44,17.28-7.88,31.09-20.1,42.73-35.16.57.48,1.14.96,1.71,1.44-.53,1.96-.87,3.99-1.62,5.86-6.69,16.66-18.4,29.58-31.34,41.51-9.92,9.14-20.1,18-30.12,27.02-1.22,1.1-2.47,2.31-3.28,3.72-12.32,21.56-19.67,44.64-21.48,70.99,2.05-3.41,3.25-5.68,4.71-7.78,14.14-20.29,34.36-30.49,58.16-34.09,20.1-3.04,39.42,1.63,58.39,7.73,13.61,4.38,27.07,9.21,41.97,14.31Zm-12.69,181.77c-1.03,1.79-1.83,3.76-3.12,5.33-3.79,4.6-7.78,9.03-11.7,13.53.22.16.45.32.67.48,6.66-3.9,13.31-7.81,20.49-12.02-2.35-2.6-4.42-4.9-6.5-7.19-3.81-4.95-7.61-9.89-11.42-14.84l-1.22.89c1.18,7.98-3.03,13.99-6.94,20.27-12.32,19.75-24.81,39.4-36.45,59.54-5.88,10.18-11.43,20.93-14.71,32.13-7.19,24.57-8.41,49.76-3.3,75.07,4.02,19.88,7.93,39.78,11.91,59.67.19.96.34,1.99.79,2.83,2.13,4.02,4.9,7.78,6.46,12,7.27,19.67,8.83,39.77,3.68,60.35,2.06-4.22,3.87-8.48,5.23-12.88,6.26-20.13,6.85-40.94,7.08-61.76.29-26.62,2.18-52.98,13.9-77.47,12.87-26.89,19-55.27,19.71-84.91.27-11.26.04-22.52.04-34.75-9.74,3.79-21.14.29-28.65,9.61-.12.14-.62-.02-1.86-.11-.36-2.83-1.94-6.35-.92-8.81,6.42-15.56,17.16-27.57,31.79-35.96,1.41-.81,3.35-.71,5.05-1.03Zm36.98,46.68c1.66-2.39,3.5-4.67,4.94-7.19,5.54-9.68,10.87-19.48,16.48-29.12.92-1.59,2.84-2.6,4.29-3.88-.25,1.97.02,4.2-.83,5.86-4.26,8.27-8.99,16.31-13.24,24.59-7.51,14.63-14.85,29.34-22.06,44.12-.57,1.16-.07,3.72.89,4.62,6.8,6.36,13.81,12.49,20.84,18.6.9.78,2.25,1.2,3.46,1.46,1.95.41,4.27-.03,5.88.88,14.29,7.97,28.51,6.4,42.68-.05,12.05-5.48,21.62-14.27,30.69-23.63,14.59-15.07,28.78-30.6,46.91-41.69,4.31-2.64,8.63-5.25,13.4-8.15-11.66,0-22.68.79-33.54-.15-29.84-2.59-56.39-13.71-79.71-32.56-2.75-2.22-2.66-3.89.18-5.72,7.55-4.87,14.96-9.98,22.69-14.54,5.92-3.49,12.24-6.3,18.94-9.7-1.84-.71-3.04-1.22-4.28-1.63-16.58-5.54-33.13-11.16-49.75-16.58-50.99-16.64-101.53-34.48-150.43-56.66-.91-.41-1.98-.63-2.71-1.25-1.01-.85-1.77-2-2.63-3.02,1.28-.15,2.56-.35,3.84-.41.46-.02.92.34,1.39.52,43.38,16.61,86.31,34.54,130.27,49.42,35.88,12.14,73.01,20.61,109.56,30.8,1.51.42,2.77,1.74,4.14,2.63-1.36.75-2.63,1.84-4.08,2.19-14.26,3.37-28.55,6.59-42.83,9.89-4.03.93-8.05,1.96-13.05,3.18,29.61,9.09,82.59-3.29,93.02-21.77-9.39,0-18.44.76-27.31-.15-21.89-2.25-42.38-9.94-62.88-17.44-42.05-15.38-84.18-30.53-126.18-46.04-16.23-5.99-32.21-12.68-48.28-19.12-1.7-.68-3.19-1.88-4.78-2.84.2-.62.39-1.25.59-1.87,1.82.33,3.73.4,5.44,1.03,15.46,5.72,30.95,11.37,46.29,17.38,39.4,15.43,80.23,24.45,122.42,26.89,25.73,1.49,50.6-1.85,72.33-17.54,1.88-1.36,3.9-2.59,5.99-3.59,1.18-.56,2.65-.53,3.99-.77-.58,1.33-.78,3.26-1.79,3.88-7.63,4.68-15.27,9.4-23.21,13.53-7.9,4.11-16.15,7.53-25.05,11.63,25.18,2.7,74.84-31.03,79.37-53.3-18.57,16.19-40.73,21.74-64.45,22.02-45.92.55-87.77-13.69-127.3-35.94-1.04-.59-1.84-1.61-3.75-3.33,2.88-.58,4.51-1.08,6.18-1.22,17.32-1.5,34.38-3.69,49.62-13.28,5.17-3.25,11.13-5.23,16.75-7.78,2.17-.98,4.36-1.92,7.88-3.46-8.05-.38-14.51-.52-20.95-1.01-21.74-1.66-42.7-6.84-63.24-13.99-22.15-7.71-43.9-16.78-67.24-20.59-27.69-4.53-53.19.25-74.74,19.2-12.46,10.95-19.77,24.57-18.02,41.87.08.82.22,1.75-.06,2.46-.25.62-1.01,1.23-1.67,1.42-.36.1-1.27-.57-1.41-1.06-.38-1.26-.57-2.59-.67-3.91-1.1-14.85-.94-29.71,2.53-44.21,3.07-12.83,7.23-25.4,10.9-38.08-5.32,7.56-11.17,15.2-14.72,23.79-9.34,22.61-13.73,45.66-.43,68.59.71,1.22,1.45,2.6,2.55,3.38,1.73,1.24,4.16,1.64,5.63,3.07,32.35,31.51,68.74,57.25,109.14,77.47,14.86,7.44,29.83,14.97,43.62,24.15,23.77,15.81,36.1,37.75,31.56,67.74Zm-199.51-52.72c.78-1.22,1.19-1.74,1.47-2.32,11.34-23.28,15.92-47.86,14.04-73.65-.14-1.92-.87-3.9-1.74-5.65-21.52-43.22-53.46-76.3-96.24-98.84-1.53-.81-3.12-1.5-5.22-2.5.07,1.66.05,2.47.15,3.27,5.39,41.15,16.11,80.88,32.05,119.19.75,1.8,2.62,3.26,4.24,4.53,9.12,7.18,18.8,13.73,27.39,21.5,10.33,9.34,17.49,21.27,23.85,34.46Zm450.17,251.5c.54-.21,1.08-.41,1.62-.62-1.94-7.69-3.15-15.65-5.95-23.01-9.33-24.53-27.23-41.87-48.89-55.63-21.96-13.95-46.55-21.09-71.63-26.88-24.96-5.76-49.94-11.43-74.82-17.52-7.82-1.91-15.34-5.05-23-7.63,1.12,1.5,2.46,2.5,3.95,3.15,14.15,6.23,28.06,13.12,42.54,18.44,27.48,10.1,55.62,18.44,82.82,29.2,15.96,6.31,31.22,14.97,45.74,24.22,21.45,13.67,37.87,32.28,47.62,56.27ZM383.04,218.09c.7-.42,1.4-.84,2.1-1.26-4.9-11.2-9.79-22.41-14.74-33.59-.31-.7-1.13-1.19-1.76-1.71-33.25-27.91-63.59-58.71-91.38-92.04-.92-1.1-1.63-2.38-2.83-4.17-11.3,37.84,6.14,128.05,27.85,146.29-.65-1.88-1.18-3.43-1.73-4.97-11.89-33.19-20.14-67.25-24.5-102.23-.23-1.81.33-3.72.52-5.59,1.85.52,3.85.75,5.54,1.59,42.26,21.01,74.69,52.33,97.8,93.41.86,1.53,2.08,2.86,3.13,4.28Zm259,570.88c.58-.49.94-.65,1.02-.9.36-1.1.7-2.22.95-3.36,7.5-34.02-.41-64.36-22.15-91.23-12.77-15.78-25.86-31.3-38.81-46.95-.74-.9-1.46-1.82-2.19-2.73.98,6.46,2.55,12.58,4.76,18.47,6.84,18.24,17.92,34.14,28.39,50.36,15.03,23.27,27.88,47.35,28.03,76.34Zm-523.07,89c12.08-61.7,29.38-121.12,51.92-179.04-1.39,1.19-2.32,2.54-3.18,3.94-17.65,28.81-30.52,59.69-41.3,91.67-9.14,27.12-10.09,54.59-7.44,83.43ZM495.51,273.45c15.74,12.11,29.72,25.79,41.93,41.55,12.6,16.26,18.62,34.34,19.56,54.77,2.14-3.42,4-6.77,5-10.35,4.61-16.5,1.07-31.7-8.46-45.5-14.26-20.63-36.39-30.23-58.04-40.47Zm2.5,8.22c.21-.32.43-.64.64-.95-1.72-1.29-3.36-2.7-5.16-3.86-13.58-8.71-27.06-17.59-40.83-25.99-21.33-13.02-42.75-25.87-60.43-43.87-4.25-4.33-8.2-8.95-13.05-14.27,3.26,8.47,6.32,15.79,8.86,23.29,1.15,3.4,2.93,5.58,6.07,7.33,31.39,17.52,62.69,35.17,94.02,52.79,3.29,1.85,6.58,3.69,9.88,5.54Zm9.51-192.35c.32.43.64.86.97,1.29,6.51-2.34,12.96-4.85,19.54-6.97,6.89-2.23,7.01-2.03,10.08,4.65,6.15,13.34,8.93,27.36,8.19,42.08,4.69-1.66,7.29-4.36,6.92-9.53-1.33-18.36-5.47-36.06-11.58-53.33-2.62,0-5.7-.97-7.18.16-9.18,6.96-18,14.38-26.94,21.65Zm72.49,85.06c21.58,3.02,81.64-18.92,91.88-32.39-8.14,1.51-16.32,2.93-24.45,4.58-2.54.52-5.19,1.25-7.41,2.55-15.9,9.32-32.77,16.27-50.47,21.32-3.29.94-6.37,2.61-9.55,3.95Zm166.81,192.21c.35.31.71.62,1.06.93,17.78-16.63,38.46-28.22,61.75-35.34-1.46-.64-2.75-.97-4.06-1.14-15.64-2.04-30.28-1.24-40.21,13.69-1.55,2.33-3.86,4.13-5.68,6.3-4.33,5.15-8.58,10.37-12.86,15.57Zm-386.93,178.77c-.62,13.44-1.35,26.21-1.75,38.98-.44,13.92.73,27.66,7.18,40.34,2.08,4.09,4.95,7.79,7.45,11.67l1.11-.65c-6.63-12.58-8.45-26.13-8.37-40.08,0-1.46-.13-3.04-.67-4.37-4.04-9.96-4.35-20.25-1.53-30.36,1.65-5.93.47-10.51-3.42-15.53Zm27.36,45.32c-.2.08-.41.16-.61.24.16,2.55.33,5.11.49,7.66-.66.18-1.32.35-1.97.53-6.06-8.29-9.07-18.11-12.43-28.28-8.45,24.89,2.62,34.5,17.37,36.96-.96-5.8-1.9-11.46-2.84-17.12Zm273.74-308.76c-6.27,2.96-10.94,5.11-15.56,7.35-4.87,2.37-9.7,4.84-14.55,7.26.13.34.26.68.4,1.02,15.32-3.53,30.64-7.06,45.96-10.59-.04-.35-.07-.71-.11-1.06-5.91-1.46-11.83-2.92-16.15-3.99Zm-345.65,66.28c-2.16-2.43-5.62-5.12-7.42-8.66-2-3.94.08-6.11,4.61-6.01,2.17.05,4.33.19,6.5.28.11-.42.21-.84.32-1.26-5.87-3.02-11.74-6.04-18.03-9.28-1.09,15.26,5.3,25.03,14.03,24.92Zm16.15,105.02c-.67.28-1.35.56-2.02.84,6.71,19.82,13.42,39.64,20.13,59.46.82-.28,1.63-.56,2.45-.83-6.85-19.82-13.7-39.64-20.55-59.47ZM439.67,38.98c-11.5,2.95-21.37,14.66-26.78,24.19,9.53-8.61,18.16-16.4,26.78-24.19Zm-81.99,118.98c-5.81-14.45-11.61-28.91-17.54-43.66,2.75,15.93,8.22,30.49,17.54,43.66Zm89.36,447.97c8.07,1.5,16.42-3.23,18.82-9.83-3.15,2.15-6.64,4.65-10.27,6.92-1,.62-2.44.53-3.68.76,0-1.17-.03-2.34.04-3.51.21-3.57.45-7.15.68-10.72-.19-.04-.38-.09-.57-.13-1.67,5.49-3.33,10.97-5.02,16.51Zm-120.1-264.59c-.17-.74-.34-1.48-.5-2.23-4.95-.65-9.9-1.31-15.55-2.06,1.83,5.64,5.22,7.4,9.2,7.22,2.33-.11,4.57-1.9,6.86-2.93ZM397.74,47.7c11.42-1.61,23.43-2.52,33.92-11.6-12.17,4.16-23.2,7.94-33.92,11.6Zm72.86,523.24c-3.68,8.24-7.14,15.98-11.14,24.92,8.33-7.78,12.52-17.33,11.14-24.92Zm58.19-483.14c3.1,4.01,5.91,7.64,9.32,12.05-2.33-10.93-4.63-13.86-9.32-12.05Zm-16.86,241.62c-.41-.33-.83-.67-1.24-1-4.02,5.67-8.03,11.33-12.05,17,.4.28.8.57,1.21.85,4.03-5.62,8.05-11.23,12.08-16.85Zm-61.82,89.69c.37.13.74.26,1.11.4,2.4-6.69,4.8-13.38,7.2-20.07-.38-.13-.76-.27-1.14-.4-2.39,6.69-4.78,13.39-7.17,20.08Z"/>
  </g>
</svg>