<?xml version="1.0" encoding="UTF-8"?>
<svg id="Layer_2" data-name="Layer 2" xmlns="http://www.w3.org/2000/svg" viewBox="0 0 117.8 178.99">
  <defs>
    <style>
      .cls-1 {
        fill: #040304;
      }

      .cls-2 {
        fill: #e49625;
      }

      .cls-3 {
        fill: #e91e1a;
      }

      .cls-4 {
        fill: #9bd343;
      }

      .cls-5 {
        fill: #aa6056;
      }

      .cls-6 {
        fill: #a74da2;
      }

      .cls-7 {
        fill: #aa3198;
      }

      .cls-8 {
        fill: #e25766;
      }

      .cls-9 {
        fill: #4154a2;
      }

      .cls-10 {
        fill: #6e3a91;
      }

      .cls-11 {
        fill: #5c2a4f;
      }

      .cls-12 {
        fill: #295530;
      }

      .cls-13 {
        fill: #5ebe50;
      }

      .cls-14 {
        fill: #774c9f;
      }

      .cls-15 {
        fill: #4cb3c1;
      }

      .cls-16 {
        fill: #51391c;
      }
    </style>
  </defs>
  <g id="Layer_1-2" data-name="Layer 1">
    <g>
      <path class="cls-6" d="M71.65,16.5c3.42-.38,6.85-.06,10.27-.06,.74,0,1.28,.61,1.87,1,4.67,3.05,9.33,6.12,14,9.17,5.36,3.49,10.74,6.96,16.11,10.44,.17,.11,.31,.25,.46,.37-1.47,.18-2.96,.23-4.32-.42-.99-.47-1.85-1.22-2.81-1.77-3.54-2.04-6.71-4.79-10.82-5.77-.34-.54-.75-.5-1.33-.19,.44,.41,.83,.62,1.29,.73,1.77,1.21,3.6,2.34,5.28,3.65,3.29,2.55,6.93,4.6,10.22,7.16,1.88,1.46,3.91,2.7,5.88,4.04v9.6c-.44-.03-.72-.33-1-.6-1.37-1.32-3.01-2.27-4.42-3.57-2.27-2.09-4.87-3.81-7.28-5.74-4.42-3.54-8.83-7.08-13.19-10.69-1.64-1.36-3.28-2.22-5.55-2-2.53,.24-5.1,.07-7.65,.07-2.69-1.29-5.22-2.87-7.81-4.35-1.06-.61-1.32-.49-1.34,.72-.02,1.19,0,2.39,0,3.58h-7.2c.82,.71,1.3,1.19,1.83,1.58,1.71,1.26,3.22,2.8,5.14,3.77,.22,1.26,.64,2.52-.22,3.72-.58,0-1.17,0-1.75,0-.3-.17-.61-.16-.93-.05-.07,.03-.15,.06-.22,.1-3.01-2.45-6.08-4.84-9.02-7.37-2.98-2.56-5.96-5.11-8.99-7.6-1.14-.93-2.73-1.73-2.62-3.64,.64-.03,1.27-.08,1.91-.08,7.22-.02,14.44-.02,21.66-.03,.47,.04,.94,.1,1.41,.18,2.14,.39,4.27,.83,6.4,1.25,2.32,.46,4.65,.89,6.97,1.32,1.07,.2,2.18,.65,3.3,.3,.02-.31-.15-.36-.29-.43-3.39-1.82-6.78-3.64-10.16-5.47-1.72-.93-3.53-1.72-5.11-2.9Z"/>
      <path class="cls-14" d="M100.42,88.4c.02-5.55,.04-11.11,.05-16.66,0-2.64,0-5.27,0-7.91,0-.31-.13-.71,.17-.89,.38-.23,.65,.14,.93,.36,5.2,4.04,10.4,8.08,15.6,12.11,.19,.15,.41,.25,.61,.38v32.87c-.2-.12-.45-.19-.6-.35-3.1-3.41-6.19-6.83-9.27-10.26-2.12-2.37-4.19-4.79-6.35-7.12-.69-.75-1.16-1.49-1.13-2.51Z"/>
      <path class="cls-11" d="M100.42,88.4c-.04,1.02,.44,1.77,1.13,2.51,2.16,2.33,4.23,4.75,6.35,7.12,3.08,3.43,6.17,6.85,9.27,10.26,.15,.16,.4,.24,.6,.35v5.28c-.45,.01-.71-.31-1.03-.55-3.55-2.64-6.98-5.46-10.63-7.96-.25-.17-.5-.52-.82-.38-.4,.18-.27,.63-.27,.97,0,3.03,.01,6.07,0,9.1,0,.74,.3,1.25,.83,1.76,2.92,2.83,5.77,5.73,8.7,8.55,1.04,1,1.79,2.35,3.23,2.92v4.8c-2.93,1.51-5.82,3.11-8.83,4.45-1.45-5.56-3.21-11.04-4.86-16.54-2.87-9.6-5.75-19.2-8.63-28.8-1.01-3.36-2.02-6.73-3.02-10.1-.12-.41-.3-.82-.16-1.54,2.79,2.68,5.47,5.24,8.15,7.81Z"/>
      <path class="cls-8" d="M108.93,137.56c3.02-1.34,5.9-2.94,8.83-4.45v21.59c-.32,.02-.64,.09-.95,.07-.99-.07-1.34,.22-1.3,1.34,.11,2.98,.02,5.98,.03,8.96,.01,4.62,.04,9.24,.06,13.86h-3.6c-1.08-4.57-2.14-9.15-3.24-13.72-1.84-7.63-3.68-15.25-5.56-22.87-.29-1.16-.15-1.99,1.07-2.42,1.55-.79,3.11-1.58,4.66-2.37Z"/>
      <path class="cls-3" d="M93.86,165.7c.22,3.69,.08,7.39,.13,11.09,.01,.72,.02,1.43,.02,2.15h-8.16c-.33-1.2-1.17-2.12-1.76-3.17-2.02-3.59-4.07-7.16-6.13-10.73-.24-.42-.29-.81-.23-1.25,.75-4.8,1.52-9.59,2.27-14.39,.74-4.8,1.46-9.6,2.2-14.41,.14,.87,.4,1.7,.65,2.55,2.8,9.49,5.57,18.99,8.37,28.48,.36,1.23,.79,2.44,1.19,3.66,.09,0,.18-.01,.27-.02,.39-1.32,.78-2.64,1.18-3.96Z"/>
      <path class="cls-11" d="M104.28,139.93c-1.22,.43-1.36,1.25-1.07,2.42,1.88,7.62,3.73,15.24,5.56,22.87,1.1,4.57,2.16,9.14,3.24,13.72h-2.4c-.17-1.96-.89-3.79-1.41-5.67-2.78-10.01-5.6-20-8.4-30-2.8-10-5.61-20-8.42-30-.17-.62-.29-1.24-.29-1.89,0-6.44,0-12.87,.02-19.31,0-.16,.04-.31,.09-.74,.67,1.55,.89,2.98,1.25,4.36,2.4,9.16,4.79,18.32,7.17,27.49,1.36,5.26,2.71,10.52,4.06,15.78,.1,.41,.25,.75,.61,.98Z"/>
      <path class="cls-9" d="M78.68,31.9c2.55,0,5.12,.16,7.65-.07,2.26-.21,3.91,.64,5.55,2,4.36,3.61,8.77,7.16,13.19,10.69,2.41,1.93,5.02,3.66,7.28,5.74,1.41,1.3,3.05,2.25,4.42,3.57,.28,.27,.57,.57,1,.6v10.08c-2.34-1.19-4.41-2.79-6.57-4.24-3.99-2.69-7.96-5.39-11.93-8.09-.16-.11-.3-.26-.44-.39,.43-.33,.48-.79,.48-1.29,0-1.24-.05-2.48,0-3.71,.09-1.87,.15-3.68-2.32-4.09-.1-.02-.18-.15-.28-.22-1.06-.69-2.12-1.38-3.23-2.01-2.09-1.19-4.27-2.2-6.31-3.51-1.57-1.01-3.12-2.12-4.9-2.89-1.24-.54-2.42-1.38-3.59-2.17Z"/>
      <path class="cls-14" d="M117.77,128.32c-1.44-.57-2.18-1.91-3.23-2.92-2.93-2.81-5.78-5.71-8.7-8.55-.53-.51-.83-1.01-.83-1.76,.02-3.03,0-6.07,0-9.1,0-.34-.14-.79,.27-.97,.33-.14,.57,.21,.82,.38,3.66,2.5,7.08,5.32,10.63,7.96,.32,.24,.58,.56,1.03,.55v14.39Z"/>
      <path class="cls-9" d="M117.77,44.84c-1.96-1.34-4-2.59-5.88-4.04-3.29-2.56-6.93-4.61-10.22-7.16-1.69-1.31-3.52-2.44-5.28-3.65,.01-.18,.03-.36,.04-.54,4.11,.97,7.28,3.73,10.82,5.77,.96,.55,1.82,1.3,2.81,1.77,1.36,.65,2.85,.6,4.32,.42,.06-.02,.11-.02,.17,0,.22,.1,.44,.19,.66,.29,.75,.71,1.59,1.27,2.57,1.62v5.52Z"/>
      <path class="cls-11" d="M115.61,178.93c-.02-4.62-.05-9.24-.06-13.86,0-2.99,.08-5.98-.03-8.96-.04-1.11,.31-1.41,1.3-1.34,.31,.02,.63-.04,.95-.07,0,7.68-.02,15.35,.03,23.03,0,1.02-.21,1.4-1.23,1.21-.31-.06-.64,0-.96,0Z"/>
      <path class="cls-3" d="M117.77,32.84c-1.74,.55-3.55,.5-5.33,.65-1.32,.11-2.5-.57-3.79-1.3,2.03-.61,3.88-1.19,5.74-1.73,.74-.21,1.15,.4,1.65,.76,.56,.41,.95,1.08,1.74,1.13v.48Z"/>
      <path class="cls-3" d="M115.2,37.7c-.22-.1-.44-.19-.66-.29,1.14-.44,1.96-1.5,3.23-1.7v1.92c-.86,.02-1.71,.04-2.57,.06Z"/>
      <path class="cls-1" d="M115.2,37.7c.86-.02,1.71-.04,2.57-.06v1.68c-.98-.34-1.82-.9-2.57-1.62Z"/>
      <path class="cls-16" d="M70.55,54.03c.99,.9,2.25,1.34,3.39,1.98,.64,.36,.9,.77,.9,1.51-.02,8.67-.02,17.33,0,26,0,.81-.33,1.2-1.03,1.52-3.77,1.74-7.52,3.52-11.27,5.28,.25-2.67,.04-5.35,.05-8.02,.02-5.67-.02-11.34-.02-17.02,0-.76-.06-1.35-1.05-1.35-3.23,0-6.47-.01-9.7-.02,0-2.62-.01-5.24-.03-7.86,0-.42,.09-.84-.29-1.22-1.5-1.5-2.92-3.09-4.58-4.43,.64-.61,1.28-1.23,1.92-1.84,.16,.04,.33,.07,.49,.11,2.76,2.55,5.79,4.77,8.65,7.2,.34,.29,.73,.3,1.12,.11,.76-.36,1.51-.73,2.27-1.08,.71-.33,.66-.66,.09-1.11-1.13-.89-2.28-1.76-3.34-2.73-.8-.74-1.91-1.2-2.28-2.36,1.76-.19,3.51-.13,5.27,0,1.89,1.35,3.98,2.35,6,3.46,1.06,.76,2.17,1.44,3.42,1.86Z"/>
      <path class="cls-11" d="M42.06,93.31c-.21,.45-.18,.94-.17,1.41,.04,1.05-.38,1.75-1.41,2.06-.25-.11-.48-.26-.77-.04-1.05,.79-2.14,1.52-3.16,2.35-.49,.4-.62,1.02-.53,1.7,.71-.32,1.07-.96,1.73-1.16,.35,1.77,.07,3.57,.2,5.35-.28,.69-.97,1.02-1.42,1.55-.28,.15-.48,.38-.54,.7h.02c-.68,.32-1.41,.86-1.21,1.55,.2,.69,1.12,.25,1.72,.33,.22,.03,.49,.04,.61-.24,.2-.08,.4-.16,.61-.25,.33,.39,.2,.84,.19,1.28-.02,.43-.3,.75-.56,1.02-1.49,1.57-2.31,3.57-3.49,5.34-1.42,1.53-2.35,3.43-3.89,5.34,0-5.44,0-10.5,0-15.56,.65-1.13,1.31-2.25,2.22-3.2,1.06-.08,1.46-.65,1.27-1.68l.07,.05c.06-.1,.12-.2,.18-.3-.06-.06-.05-.12,.02-.17,.3,.23,.55,.54,1.05,.57-.25-.54,.25-1.15-.31-1.61,.12-.21,.22-.43,.36-.61,.7-.9,1.44-1.78,2.1-2.7,.22-.31,.58-.77,.24-1.12-.3-.31-.68-.1-1.02,.23-.6,.6-1.07,1.27-1.57,1.94-1.41,1.85-2.68,3.81-4.26,5.53-.29-1.86,.03-3.74-.14-5.61,.5-.71,1-1.43,1.52-2.13q1.56-2.12-.62-3.57s-.06-.05-.1-.07c-.98-.66-1.69-.5-2.18,.56-.47,1-.87,2.04-1.31,3.06-.35-.97-.03-1.97-.18-2.95,0-.12,0-.24,0-.36,0-6.57,0-13.14-.01-19.71,0-.31,.02-.63,.03-.94,.02-.81,.04-1.62,.07-2.43,3.11,5.72,6.21,11.43,9.34,17.14,.32,.59,.23,1.13,.05,1.73-.62,1.98-1.21,3.97-1.81,5.95-.07,.22-.23,.49,0,.67,.29,.23,.5-.07,.74-.19,.76-.4,.89-1.2,1.2-1.87,1.56-3.32,2.84-6.77,4.56-10.02,.36,.45,.27,.99,.27,1.5,0,2.64,0,5.27,0,7.91,0,.59-.12,1.21,.34,1.71Z"/>
      <path class="cls-7" d="M51.82,63.92c3.23,0,6.47,.03,9.7,.02,.98,0,1.05,.59,1.05,1.35,0,5.67,.04,11.34,.02,17.02-.01,2.67,.2,5.35-.05,8.02-3.11,1.42-6.22,2.84-9.33,4.27-1.44,.66-1.43,.67-1.43-.86,0-3.03-.01-6.06-.02-9.09,.02-6.91,.03-13.81,.05-20.72,0,0,.01,0,.01,0Z"/>
      <path class="cls-12" d="M51.81,63.92c-.02,6.91-.03,13.81-.05,20.72-1.37,.79-2.34,2.03-3.51,3.04-2.1,1.83-4.13,3.75-6.19,5.63-.46-.5-.33-1.13-.34-1.71,0-2.64,0-5.27,0-7.91,0-.51,.09-1.05-.27-1.5,.43-.99,.84-1.98,1.28-2.96q.85-1.88-.84-3.01c-.5-.33-.99-.68-1.47-1.03-1.06-.75-1.1-1.18-.05-1.96,1.17-.87,2.03-2.03,3.1-2.98,.28-.25,.56-.56,.27-1.19-.98,1.01-1.88,1.96-2.81,2.88-.33,.33-.63,.77-1.16,.78-1.48,.02-2.95,.02-4.43,.02-.19,0-.42,.02-.49-.24-.06-.23,.11-.37,.26-.49,.6-.49,1.24-.94,2.06-.8,2.05,.37,3.53-.45,4.7-2.07,.3-.42,.69-.78,1.05-1.14,.42-.42,.59-.87,.28-1.5-.7,.96-1.36,1.86-2.02,2.75-.21,.29-.39,.72-.75,.73-1.75,.05-3.51,.05-5.26,.05-.22,0-.39-.15-.34-.39,.03-.12,.18-.28,.3-.31,.27-.06,.57-.12,.83-.06,3.49,.8,5.52-.91,6.8-3.93,.03-.07,.08-.14,.12-.21,.76-1.32,.65-1.51-.89-1.52-1.32,0-2.65,0-3.97,0l-.03-.39c.97-.56,1.94-1.04,3.17-.99,.74,.03,1.6,.39,2.25-.34,.25-.1,.8,.16,.58-.49-.56-1.38-1.88-2.23-2.47-3.58,.55,.22,1.04,.28,1.67,.1,1.41-.39,2.51,.36,2.31,1.86-.12,.94-.02,1.9-.01,2.86,0,.88,.47,1.32,1.34,1.32,1.67,0,3.33-.04,5-.05Z"/>
      <path class="cls-2" d="M61.13,48.7c-1.76-.14-3.51-.19-5.27,0-2.17,0-4.34-.02-6.51-.03-.16-.04-.33-.07-.49-.11-1.32-1.09-2.64-2.18-3.96-3.27-.72-.68-1.34-1.5-2.37-1.77-.96-.83-1.93-1.65-2.89-2.48-.18-.49,.1-.82,.37-1.18,1.12-1.51,2.15-3.09,3.38-4.53,.56-.66,.66-1.58,.98-2.38,1.27-3.21,1.16-6.39,.05-9.59-.19-.56-.24-1.17-.35-1.75,.02-.25,.04-.51,.06-.76h.01c.7,.04,.79,.88,1.4,1.06,0,0,.03,.1,.03,.1-.13,.11-.1,.23,0,.35-.11,1.91,1.48,2.7,2.62,3.64,3.03,2.49,6.02,5.04,8.99,7.6,2.95,2.53,6.01,4.92,9.02,7.37,.81,1.13,2.27,1.58,2.94,2.85-.9,.54-1.42,1.43-2.02,2.23-.71,.45-1.31,.34-1.91-.25-.71-.69-1.49-1.32-2.23-1.98-2.85-2.54-5.7-5.1-8.56-7.63-2.36-2.09-4.74-4.15-7.12-6.21-.19-.17-.55-.63-.73-.07-.5,1.54-1.42,2.95-1.46,4.64-.01,.64,.13,1.18,.68,1.56,4.2,2.96,8.43,5.88,12.58,8.91,1.44,1.05,3.14,1.86,4.18,3.56-.53,.04-.97,.08-1.4,.11Z"/>
      <path class="cls-10" d="M78.68,31.9c1.16,.78,2.35,1.63,3.59,2.17,1.77,.77,3.32,1.88,4.9,2.89,2.04,1.31,4.22,2.32,6.31,3.51,1.11,.63,2.17,1.32,3.23,2.01,.1,.07,.18,.2,.28,.22,2.47,.41,2.41,2.22,2.32,4.09-.06,1.23-.02,2.48,0,3.71,0,.5-.05,.96-.48,1.29-2.49-1.31-4.67-3.09-7.01-4.62-2.9-1.89-5.74-3.86-8.59-5.82-.54-.37-1.1-.39-1.71-.39-3.5,0-7.01-.01-10.51-.02,.57-.28,1.17-.17,1.77-.18,1.79-.01,3.58,0,5.37,0-2.43-.22-4.85-.22-7.28-.22-.33,0-.63,.08-.82,.39-.32,0-.64,0-.96,0,.85-1.19,.43-2.46,.22-3.72,.51-1.77,.11-3.57,.23-5.36,0-1.19-.02-2.39,0-3.58,.02-1.21,.28-1.33,1.34-.72,2.58,1.48,5.12,3.06,7.81,4.35Z"/>
      <path class="cls-4" d="M44.11,20.85c-.02,.25-.04,.51-.06,.76-1.26-1.69-2.52-3.38-3.77-5.08-.45-.61-.44-1.05,.44-1.28,2-.52,3.99-1.1,5.97-1.68,.38-.11,.7-.09,1.03,.09,.11,.06,.22,.1,.31,.17,3.21,2.36,6.82,2.84,10.71,2.6,3.73-.23,7.49-.09,11.24-.09,.55,0,1.11,.1,1.66,.16,1.58,1.18,3.38,1.97,5.1,2.9,3.38,1.83,6.77,3.64,10.16,5.47,.13,.07,.3,.12,.29,.43-1.12,.35-2.23-.11-3.3-.3-2.33-.42-4.65-.86-6.97-1.32-2.13-.42-4.26-.86-6.4-1.25-.47-.09-.94-.14-1.41-.18-.09-.07-.18-.13-.27-.2-.85-.34-1.74-.16-2.61-.16-6.91,0-13.82,.02-20.73,.03-.6-.18-.7-1.02-1.4-1.08-.05-.52,.06-1.07-.28-1.53-.11,.55-.5,1.16,.27,1.55Z"/>
      <path class="cls-2" d="M93.86,165.7c-.39,1.32-.78,2.64-1.18,3.96-.09,0-.18,.01-.27,.02-.4-1.22-.83-2.43-1.19-3.66-2.79-9.49-5.56-18.99-8.37-28.48-.25-.84-.51-1.68-.65-2.55,.08-1.48-.56-2.8-.94-4.17-2.25-8.16-4.57-16.3-6.85-24.45-.1-.34-.16-.7-.24-1.04,.14-.03,.29-.05,.43-.08,.58,1.5,1.17,3,1.74,4.5,1.67,4.38,3.32,8.76,5,13.13,.87,2.25,1.78,4.48,2.67,6.72,.07,.27,.11,.55,.21,.81,1.87,4.92,3.73,9.84,5.61,14.76,1.31,3.42,2.65,6.83,3.98,10.25,.08,.27,.16,.55,.24,.82,.59,2.08,1.32,4.15,.51,6.35-.03,.12-.06,.25-.09,.37-.61,.49-.39,1.18-.43,1.81-.06,.31-.12,.63-.18,.94Z"/>
      <path class="cls-15" d="M8.37,132.87c-.55,.62-1.22,.23-1.79,.13-.5-.09-.22-.58-.1-.9,2.13-5.5,4.26-10.99,6.41-16.48,.39-.98,.58-1.97,.58-3.02,0-7.23,.01-14.45,.02-21.68,1.03-.02,2.06-.03,3.09-.05,.42,.3,.19,.74,.19,1.1,.02,3.31,.01,6.63,.01,9.95,.54,0,.4-.71,.89-.58,.02,.56,.05,1.11,.06,1.67,.01,4.86,.02,9.71,.02,14.57-.11,1.06-.95,1.87-1.01,2.96-.64,.22-.44,.77-.45,1.22-.03,3.79-.05,7.57-.06,11.36-1.07,.25-2.2-.19-3.25,.29-.21-1.66,.11-3.36-.21-5.12-.57,.49-.61,1.17-1.14,1.48-.29-1.95-.04-3.92-.31-5.93-.99,3.01-1.98,6.02-2.97,9.03Z"/>
      <path class="cls-10" d="M27.31,71.21c0,.31-.02,.63-.03,.94-1.25-1.08-2.11-2.52-3.31-3.64-1.52-1.42-2.6-3.24-4.29-4.49-.26-.42-.47-.88-1-1.03-.4-.72-.44-1.5-.45-2.31,0-3.75-.04-7.49-.06-11.24,.24-2.49,.06-4.99,.11-7.48,.02-.91-.08-1.82,.11-2.73,0,3.22,0,6.44,0,9.65,.1,0,.2,0,.3,0,0-1.31-.04-2.61,0-3.92,.07-1.75-.24-3.51,.2-5.24,.61,.59,.33,1.67,1.15,2.14,.04,.47,.01,.96,.14,1.41,.23,.8,.67,1.5,1.64,1.37,.7-.09,1.76,.57,1.99-.78,.02-1.62,.03-3.24,.06-4.86,0-.27-.05-.59,.22-.75,.31-.19,.5,.14,.71,.28,1.16,.74,2.31,1.5,3.47,2.25-.93,2.44-1.83,4.88-2.79,7.3-.57,1.44-.94,2.77-.25,4.35,.47,1.08,.78,2.32,.69,3.58-.02,1.47-.04,2.93-.06,4.4q-.03,2.01,1.8,2.8c-.18,.04-.31,.13-.34,.32-.28,.31-.32,.71-.38,1.1-.31,1.97,.46,3.94-.05,5.92-.07,.29,.13,.52,.42,.65Z"/>
      <path class="cls-7" d="M29.97,106.03v15.56c1.54-1.9,2.47-3.8,3.89-5.34,.91,.44,1.83,.88,2.74,1.32,.47,.23,.87,.3,1.24-.22,1.77-2.48,3.48-5.01,5.37-7.4,1.34-1.7,2.22-3.46,1.93-5.66,.12-.03,.25-.05,.37-.08,.75,1.65,1.69,3.23,2,5.06-1.83,2.84-3.65,5.7-5.51,8.52-.39,.59-.4,.95,.22,1.33,.84,.52,2.01,.96,2.27,1.82,.27,.89-.77,1.74-1.12,2.66-.12,.33-.34,.62-.52,.93,0,0-.12,.02-.12,.02-.24-.14-.47-.28-.72-.41q-1.61-.87-2.87,.45c-1.18,1.23-2.41,2.41-3.52,3.69-.55,.64-.87,.47-1.45,.06-1.25-.89-2.14-2.17-3.45-2.97-.46-.37-.72-.87-.76-1.43-.08-1.15-.25-2.28-.25-3.45,0-4.77,.14-9.55-.07-14.32,.11-.05,.22-.11,.34-.16Z"/>
      <path class="cls-3" d="M13.56,90.57c-.25-1.66-.04-3.34-.11-5.01-.02-.56-.09-1.06-.36-1.59-2.3-4.41-4.55-8.85-6.82-13.29,1.19-2.38,2.37-4.77,3.56-7.15,.73,.92,1.72,1.61,2.34,2.63-.06,.91-.21,1.82-.16,2.71,.04,.74,.3,.3,.45,0,.77-.39,1.29-1.06,1.83-1.7,.2-.24,.4-.63,.73-.49,.42,.18,.24,.63,.16,.96-.23,1-.44,1.99-.16,3.13,.82-1.17,.87-2.57,1.75-3.56,0,7.75,0,15.51,.01,23.26-1.07,.05-2.15-.16-3.22,.11Z"/>
      <path class="cls-10" d="M47.49,109.27c-.31-1.83-1.25-3.4-2-5.05-.1-1.54,.3-3.11-.19-4.64-.08-.01-.15-.04-.21-.08,.52-.79,1.05-1.59,1.57-2.38,.26-.4,.66-.4,1.07-.4,1.76,0,3.52,.04,5.27,0,.81-.02,1.01,.32,1,1.08-.03,4.31-.02,8.63-.02,12.94,0,.48-.13,.74-.61,1.09-.95,.7-1.43,1.87-2.06,2.89-.26,.42-.39,1.14-.94,1.1-.49-.03-.49-.75-.67-1.17-.76-1.78-1.49-3.58-2.22-5.38Z"/>
      <path class="cls-13" d="M44.89,45.29c1.32,1.09,2.64,2.18,3.96,3.27-.64,.61-1.28,1.23-1.92,1.84-.54,.26-.96,.66-1.41,1.05-1.72,1.49-3.47,2.94-5.21,4.41-.3-.35-.55-.74-1.01-.9-1-1.87-2.69-3.25-3.6-5.18-.12-.26-.39-.39-.7-.27,0-1.23-.03-2.47-.02-3.7,0-.55-.05-1.13,.3-1.61,1.02-1.41,2.05-2.82,3.08-4.23,.31,.5,.75,.85,1.29,1.07,.96,.83,1.92,1.65,2.89,2.48,.48,1.01,1.27,1.6,2.37,1.77Z"/>
      <path class="cls-8" d="M28.27,40.8c-1.15-.75-2.31-1.5-3.47-2.25-.22-.14-.4-.47-.71-.28-.27,.16-.22,.49-.22,.75-.03,1.62-.04,3.24-.06,4.86,0-.95-.02-1.91-.02-2.86q0-2.49-2.46-2.72c.16-.29,.31-.58,.07-.9,1.26-.06,2.18-.97,3.32-1.41-.85,0-1.69,0-2.54,0q.59-1.19-1.04-1.68c1.34,.14,1.99-.5,2.32-1.79,.34-1.34,.88-2.64,1.39-3.94,.31-.78,.34-1.34-.62-1.68-.47-.16-.97-.38-1.29-.83,0-.13-.02-.25-.02-.38,.24-.07,.48-.14,.72-.21,1.26,.6,2.58,1.1,3.77,1.82,2.43,1.48,5.1,2.01,7.87,2.24,.62,.05,1.22,.19,1.82,.52-1.15,0-2.29-.01-3.44,0-.59,.01-1.94,2.07-1.74,2.62,.11,.31,.38,.21,.6,.22,.62,.03,1.24-.23,2.02,.07-1.15,.54-2.5,.36-3.22,1.44,.98,1.66,2.42,.89,3.75,.71,.71-.1,1.41-.27,2.11-.4,.09,.17,.18,.33,.28,.5-1.17,.91-2.58,.86-3.94,1-.83,.01-1.67,.01-2.5,.04-.26,0-.59-.09-.74,.23-.55,1.21-1.41,2.32-1.36,3.75-.22,.19-.44,.37-.65,.56Z"/>
      <path class="cls-3" d="M93.81,155.41c-1.33-3.42-2.67-6.83-3.98-10.25-1.88-4.91-3.75-9.84-5.61-14.76-.1-.26-.14-.54-.21-.81,1.23-.83,.45-1.89,.22-2.79-.85-3.38-1.81-6.74-2.72-10.11-.71-2.64-1.41-5.29-2.12-7.94-.11-.42-.22-.84-.33-1.27,.14-.12,.29-.24,.43-.36,.89,2.67,1.76,5.35,2.67,8.01,1.54,4.52,3.1,9.04,4.66,13.56,1.68,4.83,3.38,9.66,5.06,14.49,.27,.79,.5,1.59,.75,2.39,.08,.69,.33,1.31,.73,1.88,.91,2.6,.71,5.27,.45,7.94Z"/>
      <path class="cls-4" d="M28.27,40.8c.22-.19,.44-.37,.65-.56,2.29-.37,4.21-1.69,6.35-2.45,.35,.08,.66-.3,1.08-.05-.19,.14-.35,.27-.52,.4-1.46,.79-2.93,1.55-4.37,2.37-.68,.38-1.13,.99-1.26,1.78-1.11,.61-1.06,1.95-1.78,2.85-.9,1.12-1.5,2.49-2.24,3.75-.29,.5-.33,.96,.14,1.38-.13,.48-.45,.95,.06,1.41,.37,.33,.83,.46,1.2,.23,.58-.36,1.3-.54,1.67-1.19,2.1,1.82,4.18,3.67,6.3,5.45,.25,.21,.77,1.02,1.13,0,.45,.6,1.07,.63,1.73,.54,.02,1.19-.85,2.15-.93,3.28-.09,1.34-.67,1.85-1.95,1.67-.42,.04-.74-.18-1.1-.37-2.05-1.11-3.92-2.52-5.84-3.84-.86-.59-2.03-.52-2.69-1.42,.09-1.26-.22-2.5-.69-3.58-.69-1.58-.32-2.91,.25-4.35,.96-2.42,1.86-4.87,2.79-7.3Z"/>
      <path class="cls-2" d="M9.83,63.53c-1.19,2.38-2.37,4.77-3.56,7.15-.54-1.06-1.04-2.14-1.65-3.17-.3-.51-.28-.97,.08-1.29,.75-.68,1.13-1.65,1.97-2.25,.5-.35,.79-.88,.95-1.48,.84-3.24,1.67-6.47,2.53-9.7,.81-3.02,1.65-6.02,2.47-9.03,.43,.31,.35,.77,.35,1.2,0,1.27-.02,2.55-.02,3.82v5.58c.52-1.25,1.06-2.54,1.6-3.83,.46,.38,.2,.93,.33,1.39-.57,3.62-1.14,7.25-1.71,10.87-.15,.94-.31,1.88-.45,2.82-.07,.47-.17,.96,.28,1.32,.04,.7-.28,1.3-.54,1.91-.15,.31-.41,.75-.45,0-.05-.9,.1-1.81,.16-2.71,.17-2.74,.34-5.47,.5-8.21-.59,.6-1.05,1.22-1.34,1.92-.51,1.22-1.45,2.26-1.5,3.67Z"/>
      <path class="cls-15" d="M22.18,35.99c.85,0,1.69,0,2.54,0-1.15,.45-2.07,1.35-3.32,1.41-2.28,.17-4.55-.34-6.83-.21-.34,.02-.66-.08-.89-.29-.96-.81-1.26-.23-1.61,.63-1.54,3.82-3.12,7.62-4.69,11.43-.1,.25-.24,.48-.47,.69-.16-1.34,.75-2.54,.52-3.88,0,0-.02,.02-.02,.02,.36-.11,.25-.39,.23-.63,.47-1.76,1-3.51,1.41-5.28,.3-1.3,.76-2.58,.7-3.94,.33-.83,.04-1.37-.69-1.86-.57-.38-1.38-.4-1.73-1.17,1.06-.01,1.77,.92,2.78,.96,.46,.32,.92,.21,1.14-.23,.3-.61,.9-1.05,.97-1.78,.61,.09,.81-.44,1.09-.79,1.56-1.91,3.14-3.81,4.64-5.77,.81-1.06,1.67-2.01,2.9-2.57,.3,0,.65,.1,.72-.37,.72-.31,1.44-.61,2.16-.93,.29-.13,.63-.38,.85-.07,.29,.43-.22,.6-.46,.8-.58,.47-1.17,.93-1.61,1.54-.54,.1-.88,.4-1.03,.93-1.43,.93-2.61,2.16-3.82,3.38,1.6-.53,3.07-1.29,4.41-2.31,.28,0,.56-.01,.85-.02,0,.13,.02,.25,.02,.38-3.09,2.04-5.91,4.43-8.75,6.79-.46,.38-.56,1.04-.82,1.58-.24,.5-.07,.6,.39,.83,1.84,.95,3.76,1.18,5.78,.88,.78-.12,1.58-.13,2.38-.19,.08,0,.17,.02,.25,.03Z"/>
      <path class="cls-2" d="M16.76,120.54c.05-1.08,.89-1.89,1.01-2.96,1.36-2.52,2.25-5.23,3.35-7.86,.55,.23,.38,.72,.39,1.12,.03,1.53,.03,3.06,.05,4.59-.1,.18-.19,.35,.03,.52,0,1.55,0,3.11,0,4.66-.03,3.04-.05,6.08-.08,9.12-.42,.31-.45,.82-.63,1.26-.15,.04-.3,.08-.45,.11-.95-.34-1.61-.06-1.97,.9-.03,.07-.09,.11-.17,.11-1.28,.27-1.54-.28-1.51-1.5,.09-3.35,.01-6.71,0-10.07Z"/>
      <path class="cls-16" d="M41.47,131.5c-1.52,2.6-1.93,5.56-2.58,8.42-.36,1.57-.65,3.13-1.8,4.35-.16,.17-.23,.43-.68,.36,.26-.91,.51-1.8,.76-2.7-.88,.81-1.05,1.97-1.77,3.24-.38-1.15-.7-2.08-1.01-3.03-.48-1.49-.48-1.49-1.97-.92-.56,.21-1.13,.4-1.69,.6-.12-.32-.24-.63-.36-.95-.17-.35-.34-.7-.51-1.05,.37-.37,.47-.86,.56-1.35,.01-.39,.28-.62,.53-.89,1.48-1.63,3.38-2.8,4.89-4.37,1.62-1.67,3.48-2.08,5.64-1.73Z"/>
      <path class="cls-7" d="M67.11,46.05c.61-.81,1.13-1.69,2.02-2.23,3.84,3.28,7.67,6.56,11.57,9.89-.45,.39-.81,.26-1.14,.28-.23-.27-.56-.26-.87-.28-2.48-.12-4.98,.2-7.45-.19-.35-.06-.62,.1-.73,.46,0,0,.05,.07,.05,.07-1.25-.42-2.36-1.1-3.42-1.86,0-2.04-.02-4.08-.03-6.12Z"/>
      <path class="cls-6" d="M20.18,21.06c-1.76,1.78-3.52,3.56-5.28,5.34-.33,.33-.64,.81-1.07,.06-2.7-4.73-5.41-9.44-8.12-14.16,.08,0,.17-.01,.23,.02,4.52,2.83,9.14,5.49,13.76,8.14-.03,.34,.39,.34,.47,.6Z"/>
      <path class="cls-2" d="M45.13,104.29c.29,2.21-.58,3.96-1.93,5.66-1.89,2.39-3.6,4.92-5.37,7.4-.37,.52-.77,.44-1.24,.22-.91-.44-1.82-.88-2.74-1.32,1.18-1.77,2-3.77,3.49-5.34,.26-.27,.54-.59,.56-1.02,2.21-3.24,4.7-6.3,6.49-9.82,.13-.25,.38-.26,.51-.46,.38,1.5,.08,3.03,.22,4.54-.01,.04-.01,.09,0,.13Z"/>
      <path class="cls-3" d="M12.23,31.87c-.07,.73-.68,1.17-.97,1.78-.21,.44-.67,.55-1.14,.23,.36-1.09,.62-2.22,1.11-3.25,.39-.83,.24-1.44-.28-2.07-2.99-3.64-5.79-7.42-8.62-11.18-.26-.34-.56-.73-.6-1.13-.36-3.27-1.15-6.49-1.28-9.8h.02c1.14,1.36,1.8,3.02,2.62,4.58,3.01,5.77,5.9,11.61,8.97,17.36,.67,1.25,.53,2.3,.19,3.48Z"/>
      <path class="cls-2" d="M19.71,20.46c-4.62-2.65-9.25-5.31-13.76-8.14-.06-.04-.16-.02-.23-.02-1.59-2.54-3.07-5.14-4.48-7.77,.17-.22,.26-.64,.66-.22,.21,.22,.49,.21,.74,.01,1.07,.82,1.95,1.87,3.11,2.59,0,.08-.02,.16,0,.23,.2,.81,2.7,2.98,3.59,3.12,1.22,1.05,2.44,2.09,3.65,3.14,1.89,1.65,3.76,3.33,5.65,4.97,.38,.33,.67,.83,1.41,.44,.41-.22,.8,.38,1.07,.75,.46,.64-.4,.82-.5,1.28-.3-.13-.6-.25-.9-.38Z"/>
      <path class="cls-2" d="M79.86,14.59c-.03-.24,.6-.75-.26-.64-.47,.06-.94,.14-1.4,.22,.19-.8-.61-1.47,.03-2.39-1.48,.67-1.58,2.01-2.34,2.87-.53,.27-1.12,.26-1.69,.35-.05-.07-.1-.14-.14-.2,.26-.23,.52-.45,.93-.81-1.21-.07-2.26-.14-3.31-.2-.29-.34-.05-.57,.15-.82,.5-.64,1.01-1.28,1.48-1.94,.12-.17,.27-.46,.04-.65-.25-.2-.39,.06-.55,.23-.38,.38-.77,.76-1.19,1.09-.13,.1-.29,.55-.52,.19-.8-1.24-1.06,.03-1.53,.3-.3,.16-.44,.42-.47,.76,0,0,0,.02,0,.02-.42,.16-.88,.47-.99-.32,.01-1.01,.02-2.03,.03-3.04,3.12,0,6.25-.04,9.37-.02,1.15,0,2.15,.46,2.95,1.29,.14,.49-.76,.96-.21,1.31,.57,.37,.94-.39,1.4-.67,.1-.06,.18-.14,.27-.21,.68,.17,1.31,.43,1.88,.85-1.33,.76-2.32,2.07-3.9,2.44Z"/>
      <path class="cls-4" d="M37.2,18.03c-1.47-2.26-2.93-4.51-4.39-6.77-.58-.9-1.18-1.79-1.73-2.7-.55-.9-1.23-1.6-2.22-2.08-2.76-1.35-5.47-2.8-8.2-4.22-.25-.13-.52-.24-.72-.42-.5-.47-.56-1.13-.25-1.65,.26-.44,.75,0,1.07,.14,3.31,1.5,6.6,3.04,9.9,4.55,.34,.16,.57,.33,.75,.68,1.65,3.14,3.34,6.26,5.01,9.39,.5,.94,.77,1.96,.79,3.08Z"/>
      <path class="cls-8" d="M12.46,68.86c.26-.62,.58-1.22,.54-1.91,.54,.02,.58-.48,.78-.79,1.45-2.22,2.13-4.66,2.26-7.32,.14-2.79,.55-5.56,.75-8.35,.07-1.02,.51-1.23,1.38-1.03,.02,3.75,.05,7.49,.06,11.24,0,.81,.05,1.59,.45,2.31-.95,.59-1.31,1.53-1.4,2.57-.05,.59-.04,1.18-.51,1.63-.88,.99-.92,2.39-1.75,3.56-.27-1.14-.07-2.13,.16-3.13,.08-.33,.26-.78-.16-.96-.34-.14-.54,.25-.73,.49-.54,.64-1.05,1.31-1.83,1.7Z"/>
      <path class="cls-5" d="M36.69,56.18c-.36,1.02-.87,.22-1.13,0-2.13-1.79-4.21-3.63-6.3-5.45,.47-1.26,.95-2.51,1.39-3.78,.67-1.91,1.32-3.79,2.97-5.16,1.12-.93,2.09-2.04,3.13-3.07,.17,.31,.39,.56,.76,.63-.3,.32-.55,.73-.91,.94-2.67,1.55-3.16,3.88-3.09,6.82,.07,2.86,.31,5.5,2.15,7.79,.32,.4,.38,1.01,.98,1.18l.05,.1Z"/>
      <path class="cls-4" d="M41.47,131.5c-2.16-.34-4.03,.06-5.64,1.73-1.51,1.57-3.41,2.74-4.89,4.37-.25,.27-.52,.49-.53,.89-.22-.45-.46-.9-.44-1.42,.73-.26,1.11-.95,1.63-1.45,2.46-2.39,4.85-4.86,7.27-7.29,1.27-1.27,2.75-2.33,3.86-3.76,0,0,.12-.02,.12-.02-.22,1.7,.44,3.27,.71,4.9,.1,.63,.28,1.25-.03,1.87-.2-.08-.51-.02-.57-.28-.21-.96-.51-.37-.81-.06-.22,.18-.44,.36-.66,.54Z"/>
      <path class="cls-2" d="M60.3,13.96c-.6-.34-1.19-.69-1.79-1.03l.08-.21c.53-.03,1.07-.07,1.99-.13-1.42-.78-2.27-1.97-3.76-1.81-1.32,.14-2.59,.64-4.22,.67,1.41-1.07,2.49-1.99,4.19-1.92,3.11,.12,6.22,.04,9.33,.04,.06,1.45,.13,2.89,.19,4.34-.03,.09-.09,.13-.18,.13-1.94-.19-3.89-.1-5.84-.08Z"/>
      <path class="cls-11" d="M39.9,17.59c1.03,1.15,2.06,2.29,3.07,3.45,.25,.29,.25,.67,.2,1.03-.23,1.57-.42,3.16-.73,4.72-.4,2.01-2.12,3.02-3.4,4.63-.26-.97-.06-1.48,.37-2.09,1.21-1.74,2.02-3.72,2.66-5.71,.36-1.12-.45-2.27-.84-3.39-.35,1.32-.5,2.64-.43,3.98,.04,.82-.25,1.36-1,1.71-1.23,.56-2.3,1.44-3.59,1.91-.29,.11-.59,.42-.85,.09-.23-.3,.08-.6,.24-.85,1.03-1.61,1.98-3.29,3.13-4.81,1.07-1.41,1.14-2.91,.85-4.55l.31-.09Z"/>
      <path class="cls-10" d="M42.13,130.96c.29-.31,.6-.89,.81,.06,.06,.27,.37,.2,.57,.28,.04,3.42,.08,6.84,.12,10.26,0,.79,0,1.58-.28,2.38-.08-1.36-.15-2.71-.23-4.07,0-1.24-.19-2.43-.76-3.89-.43,2.19-.04,4.49-2.77,5.22,.64,.41,1.22,.67,1.26,1.35-.06,.21-.13,.41-.19,.62-.06,.15-.11,.3-.17,.45,0,0-.01,.02-.01,.02-.05,.11-.11,.22-.16,.33-.1,.3-.14,.64-.31,.89-.19,.28-.13,.94-.71,.73-.5-.18-1.09-.46-.98-1.17,.14-.82,.37-1.62,.56-2.43,.62-.4,.44-.98,.37-1.54,.02-.13,.05-.25,.07-.38,.66-.4,.42-1,.34-1.56,.58-2.49,.72-5.14,2.48-7.23,.06-.07,0-.22,0-.34Z"/>
      <path class="cls-2" d="M11.65,129.77c.53-.31,.57-1,1.14-1.48,.32,1.76,0,3.46,.21,5.12,0,.09,0,.19,0,.28-.04,1.56-.08,3.11-.12,4.67-.37-.19-.18-.93-.83-.86-.63,.62,.01,1.42-.24,2.11-.58-.02-.72-.67-1.22-.72-.05-.01-.07-.04-.06-.1,0,0-.02-.03-.02-.03-.25-.35-.49-.69-.74-1.04-.08-.13-.16-.25-.23-.38,0,0,0,.03,0,.03,.03-1.26,.07-2.52,.1-3.78,.47-1.39,1.4-2.53,2.03-3.83Z"/>
      <path class="cls-3" d="M107.66,24.66c.9,.44,1.58,1.18,2.37,1.77,.45,.33,.52,.63-.14,.75-1.75,.33-3.5,.68-5.27,.94-.94,.14-1.61-.57-2.36-1-.97-.55-2.04-.97-2.73-1.92,2.73,.12,5.43-.23,8.12-.55Z"/>
      <path class="cls-15" d="M35.66,54.89c-1.84-2.29-2.08-4.93-2.15-7.79-.07-2.93,.42-5.27,3.09-6.82,.36-.21,.61-.62,.91-.94,.56-.44,1.23-1.52,1.66-1.15,.47,.4-.56,1.13-.82,1.78-1.03,1.41-2.05,2.82-3.08,4.23-.35,.49-.3,1.06-.3,1.61,0,1.23,.01,2.47,.02,3.7-.48,1.84,.38,3.41,1.01,5.03-.11,.11-.22,.23-.34,.34Z"/>
      <path class="cls-6" d="M21.33,38.31q2.46,.23,2.46,2.72c0,.95,.01,1.91,.02,2.86-.23,1.34-1.29,.68-1.99,.77-.97,.13-1.41-.57-1.64-1.37-.13-.45-.1-.94-.14-1.41,0-.11,0-.22,0-.33,0-.5-.01-1.01-.02-1.52,0-.33,0-.66,.01-.99,.02-.19,.04-.38,.06-.56,.37-.31,.82-.13,1.23-.18Z"/>
      <path class="cls-10" d="M12.86,138.36c.04-1.56,.08-3.11,.12-4.67,.96,.06,1.92-.23,2.88-.05,.07,1.64-.26,3.29,.13,4.92,.08,.06,.16,.12,.25,.18,0,.63,0,1.25,0,1.88-.24-.26-.48-.53-.72-.79-.59,.38-.34,1.16-.89,1.61-.8-.93-1.19-2.06-1.76-3.08Z"/>
      <path class="cls-13" d="M37.71,108.62c-.2,.08-.4,.16-.6,.25-.59-.02-1.44,.2-1.72-.11-.54-.6,.68-.88,.61-1.53,0,0-.02,0-.02,0,.35-.1,.53-.34,.54-.7,.46-.53,1.14-.86,1.42-1.55,1.4-.87,1.88-2.51,2.99-3.63,.39-.39,.71-.84,1.08-1.3,.86,.9,.9,1.62,.09,2.6-1.57,1.9-3.1,3.86-4.4,5.97Z"/>
      <path class="cls-15" d="M36.75,38.72c-1.04,1.03-2.01,2.14-3.13,3.07-1.65,1.37-2.3,3.25-2.97,5.16-.44,1.27-.93,2.52-1.39,3.78-.37,.65-1.1,.83-1.67,1.19-.37,.23-.83,.1-1.2-.23-.52-.46-.19-.93-.06-1.41,1.23-.93,2.57-1.75,3.21-3.26,.53-1.23,1.07-2.45,1.6-3.68,.42-.63,.97-1.12,1.54-1.62,1.24-1.08,2.72-1.87,3.84-3.1l.02-.02c.03,.08,.09,.11,.18,.11h.03Z"/>
      <path class="cls-9" d="M95.04,20.96c-.96-.22-1.98-.23-3.02-.76,2.44-.85,4.83-1.43,7.22-1.99,.34-.08,.63,.06,.88,.27,.98,.81,1.96,1.62,2.94,2.43-2.67,.24-5.35,.16-8.02,.07Z"/>
      <path class="cls-11" d="M33.44,16.55c-1.73-.52-3.41-.97-4.29-2.93-.74-1.65-1.81-3.15-2.65-4.85,1.24,.35,2.58,.67,3.35,1.69,1.4,1.86,2.57,3.89,3.84,5.85-.08,.08-.17,.16-.25,.23Z"/>
      <path class="cls-3" d="M95.04,20.96c2.68,.09,5.35,.17,8.02-.07,.31,.25,.61,.49,.92,.74-1.97,1.49-9.64,1.49-11.5,.03,.74-.65,1.82-.04,2.55-.7Z"/>
      <path class="cls-11" d="M23.81,142.11c-.24,.63-.48,1.18,.35,1.57,1.2,.57,1.29,.6,1.8-.68,.31-.78,.56-1.58,.92-2.33,.51-1.08,1.13-.22,1.67-.02,.72,.27,.43,.71,.09,1.11-1.1,1.32-2.2,2.63-3.29,3.94-.2,.24-.43,.6-.77,.33-.67-.53-1.35-.89-2.23-1-.46-.06-.47-1.96-.02-2.21,.44-.24,.81-.64,1.48-.7Z"/>
      <path class="cls-15" d="M29.97,137.06c-.03,.53,.22,.97,.44,1.42-.09,.49-.19,.97-.56,1.35-.5-1.62-1.03-3.24-1.49-4.88-.2-.71-.54-1.14-1.26-1.41-2.01-.76-3.98-1.6-5.97-2.41-.1-.06-.2-.12-.3-.17,0,0,.02,.02,.02,.02,.18-.43,.21-.94,.63-1.26,2.02,1.02,4.04,2.03,6.05,3.06,.6,.31,1.04,.71,1.31,1.43,.32,.84,.29,1.83,.99,2.51,.04,.11,.09,.22,.13,.33Z"/>
      <path class="cls-13" d="M35.28,37.79c-2.14,.76-4.07,2.07-6.35,2.45-.05-1.43,.8-2.54,1.36-3.75,.15-.33,.48-.23,.74-.23,.83-.03,1.66-.03,2.5-.04,.59,.52,1.18,1.05,1.76,1.57Z"/>
      <path class="cls-10" d="M11.65,129.77c-.63,1.3-1.56,2.44-2.03,3.83-.18,.04-.35,.07-.53,.11-.06-.44-.34-.68-.72-.84,.99-3.01,1.98-6.02,2.97-9.03,.27,2.01,.02,3.98,.31,5.93Z"/>
      <path class="cls-3" d="M9.76,35.95c.06,1.37-.4,2.64-.7,3.94-.41,1.78-.93,3.52-1.41,5.28-.28,.14-.58,.26-.23,.63,0,0,.02-.02,.02-.02-.85,.5-.57,1.56-1.12,2.27-.62-2.24,.35-4.17,1.01-6.14,.56-1.7,1.2-3.37,1.75-5.07,.13-.41,.32-.71,.69-.9Z"/>
      <path class="cls-9" d="M86.97,16.77c-.72,0-1.44,.01-2.15,.02-.2,0-.44-.01-.46-.26-.01-.12,.12-.28,.24-.38,.87-.71,1.75-1.39,2.61-2.1,.33-.27,.66-.22,1-.06,1.48,.69,2.95,1.38,4.42,2.07-.6,.3-1.24,.21-1.87,.21-1.31,.02-2.61,.03-3.92,.05,.01,.06,.02,.12,.04,.18,.01,.03,.07,.04,.1,.06-.01,.07-.02,.14-.01,.2Z"/>
      <path class="cls-4" d="M16.24,140.62c0-.63,0-1.25,0-1.88,.02-.21,.04-.42,.05-.64,.52,.36,.27,1.1,.81,1.65,.36-2.33-.21-4.48,.13-6.64h-.29c-.21,.22-.42,.45-.62,.68l-.05-.03c0-.1,.01-.2,.02-.29-.02-.12-.03-.24-.05-.36,.02-3.79,.03-7.57,.06-11.36,0-.44-.2-.99,.45-1.22,0,3.36,.08,6.72,0,10.07-.03,1.23,.24,1.77,1.51,1.5-.55,.21-.74,.57-.72,1.18,.06,2.3,.07,4.6,.04,6.89,0,.35,.41,.87-.19,1.1-.62,.24-.88-.25-1.16-.67Z"/>
      <path class="cls-13" d="M36.52,38.62c-1.12,1.23-2.59,2.02-3.84,3.1-.57,.49-1.12,.99-1.54,1.62-.31-.35-.62-.7-.94-1.05,.13-.8,.58-1.4,1.26-1.78,1.44-.82,2.91-1.58,4.37-2.37,.07,.38,.37,.44,.68,.49Z"/>
      <path class="cls-9" d="M79.86,14.59c1.58-.37,2.57-1.68,3.9-2.44,1,.14,1.82,.66,2.95,1.31-2.51,.79-4.76,1.5-7.02,2.19-.13,.04-.36,.04-.44-.04-.16-.18-.03-.35,.13-.5,.17-.16,.32-.34,.48-.52Z"/>
      <path class="cls-11" d="M40.86,142.58c-.04-.68-.62-.94-1.26-1.35,2.73-.73,2.35-3.03,2.77-5.22,.57,1.45,.76,2.65,.76,3.89-.4,1-.11,2.04-.16,3.06-.03,.56,.02,1.12,0,1.67-.02,.38,.07,.98-.44,.96-.58-.02-.31-.63-.32-.97-.03-.95,.02-1.91,.03-2.87,.09,.49,.18,.98,.28,1.47,.13-.96,.17-1.92,.12-2.88-.02-.36-.26-.13-.41-.03-.55,.11-.31,.93-.9,1,0,0-.06-.03-.06-.03v.04c-.02,.45,.02,.93-.4,1.25Z"/>
      <path class="cls-9" d="M107.66,24.66c-2.7,.32-5.4,.67-8.12,.55,1.99-.98,4.14-1.46,6.29-1.89,.75-.15,1.32,.75,1.84,1.35Z"/>
      <path class="cls-11" d="M25.07,140.15c-.22,.35-.54,.91-.91,1.42-.24,.33-.52,.14-.67-.12-.7-1.17-1.92-1.63-3.04-2.22-.37-.2-.9-.4-.56-.97,.31-.52,.68-.12,1.02,.04,1.23,.57,2.29,1.66,3.86,1.22,.26-.07,.47,.08,.31,.63Z"/>
      <path class="cls-9" d="M69.53,12.16c.47-.27,.74-1.54,1.53-.3,.23,.36,.39-.09,.52-.19,.42-.33,.82-.7,1.19-1.09,.17-.17,.3-.43,.55-.23,.23,.19,.08,.48-.04,.65-.47,.66-.98,1.3-1.48,1.94-.2,.25-.44,.49-.15,.82-.84,0-1.36,.62-2.15,1.28,0-.96,0-1.68,0-2.4,0-.16,0-.32,.01-.48Z"/>
      <path class="cls-3" d="M30.36,140.88c.12,.32,.24,.63,.36,.95-.24,1.12-.46,2.25-.72,3.37-.07,.31,.05,.87-.46,.8-.34-.05-.65-.41-.77-.82-.21-.77,.9-3.78,1.58-4.29Z"/>
      <path class="cls-15" d="M37.75,99.63c-.67,.19-1.03,.84-1.73,1.16-.08-.68,.04-1.3,.53-1.7,1.02-.83,2.11-1.56,3.16-2.35,.29-.22,.52-.07,.77,.04,.18,.61-.33,.8-.67,1.09-.62,.53-1.25,1.07-1.87,1.6-.06,.06-.12,.13-.18,.19v-.03Z"/>
      <path class="cls-4" d="M10.57,138.89c.5,.05,.64,.69,1.22,.72,.25-.69-.39-1.49,.24-2.11-.01,3.76,2.93,6.16,4.24,9.33-1.83-2.71-3.87-5.24-5.7-7.94Z"/>
      <path class="cls-8" d="M43.17,29.32c-.33,.97-.64,1.96-1.01,2.92-.23,.6-.65,1.06-1.35,1.15-.56-.2-.59-.66-.57-1.14,.86-1.26,1.72-2.51,2.58-3.77,.29,.2,.31,.53,.35,.84Z"/>
      <path class="cls-9" d="M68.11,9.58c-.01,1.01-.02,2.03-.03,3.04,0,0-.04,0-.04,0-.28-.02-.55-.11-.48,.39,.12,.81-.33,1.49-.72,2.2,0-1.8-.08-3.6,.05-5.39,.04-.6,.8-.18,1.23-.23Z"/>
      <path class="cls-9" d="M75.89,14.63c.76-.86,.86-2.2,2.34-2.87-.64,.92,.16,1.6-.03,2.39-.48,.28-.95,.56-1.43,.84-.45,.26-.84,.37-.88-.36Z"/>
      <path class="cls-16" d="M79.49,107.14c-.14,.12-.29,.24-.43,.36-.76-1.69-1.35-3.43-1.38-5.31l.02-.02c.85,1.57,1.35,3.26,1.78,4.98Z"/>
      <path class="cls-5" d="M94.55,162.58c.81-2.19,.08-4.27-.51-6.35,.38,.95,.8,1.89,1.14,2.85,.46,1.27-.3,2.35-.64,3.49Z"/>
      <path class="cls-5" d="M40.24,32.25c-.02,.48,.02,.94,.57,1.14-.94,.94-2.07,1.52-3.35,1.82-.09-.17-.18-.33-.28-.5,.73-.34,1.65-.31,2.11-1.14,.07,.14,.11,.34,.31,.29,.09-.02,.2-.15,.22-.24,.06-.3-.19-.28-.38-.33,.15-.43,.41-.78,.79-1.04Z"/>
      <path class="cls-4" d="M21.5,24.64c.15-.53,.49-.83,1.03-.93,.33,.62,.95,1.05,1.12,1.77-.24,.07-.48,.14-.72,.21-.28,0-.56,.01-.85,.02-.44-.22-.47-.67-.58-1.07Z"/>
      <path class="cls-14" d="M18.89,39.74c-.43,1.73-.13,3.49-.2,5.24-.05,1.3,0,2.61,0,3.92-.1,0-.2,0-.3,0,0-3.22,0-6.44,0-9.65-.03-.15-.05-.32,.12-.39,.03-.01,.16,.12,.2,.21,.08,.22,.13,.45,.19,.68Z"/>
      <path class="cls-8" d="M70.5,53.96c.11-.36,.39-.51,.73-.46,2.48,.4,4.97,.07,7.45,.19,.32,.02,.64,.01,.87,.28-3.02,0-6.04-.01-9.06-.02Z"/>
      <path class="cls-4" d="M9.34,10.25c-.89-.14-3.39-2.3-3.59-3.12-.02-.07,0-.16,0-.23,1.2,1.12,2.39,2.23,3.59,3.35Z"/>
      <path class="cls-14" d="M70.04,40.92c.18-.32,.48-.39,.82-.39,2.42,0,4.85,0,7.28,.22-1.79,0-3.58,0-5.37,0-.59,0-1.2-.1-1.77,.18-.32,0-.64,0-.95-.01Z"/>
      <path class="cls-4" d="M2.64,4.31c-.25,.19-.53,.21-.74-.01-.41-.42-.49,0-.66,.22-.41-.67-.83-1.34-1.24-2.02,1.13,.25,1.84,1.09,2.64,1.81Z"/>
      <path class="cls-5" d="M12.95,48.79c0-1.27,.02-2.55,.02-3.82,0-.43,.08-.89-.35-1.2-.02-.48,.07-.92,.58-1.5,0,2.35,.14,4.45-.25,6.53Z"/>
      <path class="cls-9" d="M81.89,11.29c-.09,.07-.17,.15-.27,.21-.46,.27-.83,1.03-1.4,.67-.55-.35,.35-.82,.21-1.31,.6-.25,.99,.23,1.46,.44Z"/>
      <path class="cls-12" d="M86.97,16.77c0-.07,0-.14,0-.2,1.22,0,2.44,.02,3.65-.01,.93-.02,1.88,.23,2.77-.26,.3-.03,.54,.06,.81,.47h-7.24Z"/>
      <path class="cls-15" d="M93.4,16.3c-.88,.49-1.84,.24-2.77,.26-1.22,.03-2.44,0-3.65,.01-.03-.02-.08-.03-.1-.06-.03-.05-.03-.12-.04-.18,1.31-.01,2.61-.03,3.92-.05,.63,0,1.27,.08,1.87-.21,.26,.08,.51,.15,.77,.23Z"/>
      <path class="cls-4" d="M9.09,133.71c.18-.04,.35-.07,.53-.11-.03,1.26-.07,2.52-.1,3.78-.37-.17-.44-.43-.42-.85,.05-.94,0-1.88-.01-2.82Z"/>
      <path class="cls-2" d="M53.51,14.03c-.85,.22-1.42-.01-1.86-.62-.15-.2-.22-.45-.06-.65,.18-.22,.44-.14,.65-.02,.51,.28,1,.6,1.27,1.29Z"/>
      <path class="cls-4" d="M19.71,20.46c.3,.13,.6,.25,.9,.38,.32,.51,.65,1.02,.97,1.54-.06,.46-.42,.37-.72,.37-.3-.53-.26-1.2-.68-1.68-.08-.26-.5-.25-.47-.6Z"/>
      <path class="cls-5" d="M13.56,90.57c1.07-.26,2.15-.06,3.22-.11-.06,.14-.13,.27-.19,.41-1.03,.02-2.06,.03-3.09,.05,.02-.12,.04-.24,.06-.35Z"/>
      <path class="cls-5" d="M60.3,13.96c1.95-.01,3.9-.1,5.84,.08-1.95,.04-3.9,.21-5.84-.08Z"/>
      <path class="cls-4" d="M74.6,105.24c-.14,.03-.29,.05-.43,.08-.28-1.05-.82-2.03-.75-3.16l-.02,.02c.61,.94,.81,2.04,1.21,3.05Z"/>
      <path class="cls-10" d="M42.22,140.31c.15-.1,.4-.33,.41,.03,.05,.96,.02,1.92-.12,2.88-.09-.49-.18-.98-.28-1.47,0-.48-.01-.96-.02-1.44Z"/>
      <path class="cls-6" d="M45.13,104.16c-.14-1.51,.16-3.04-.22-4.54,.04-.07,.1-.11,.19-.12,.07,.04,.14,.07,.21,.08-.08,1.53,.3,3.07-.18,4.58Z"/>
      <path class="cls-6" d="M43.17,29.32c-.05-.31-.06-.63-.35-.84,.36-.55,.72-1.1,1.09-1.65,.07,.03,.13,.07,.2,.1-.31,.8-.62,1.59-.93,2.39Z"/>
      <path class="cls-4" d="M18.43,132c.36-.95,1.03-1.24,1.97-.9-.66,.3-1.31,.6-1.97,.9Z"/>
      <path class="cls-5" d="M14.88,51.93c-.12-.46,.13-1.01-.33-1.39,.27-.45,.13-1.18,.87-1.32h-.02c-.17,.9-.35,1.81-.52,2.72Z"/>
      <path class="cls-5" d="M66.31,13.91c-.06-1.45-.13-2.89-.19-4.34,.66,.53,.28,1.25,.3,1.87,.02,.82,.19,1.66-.1,2.47Z"/>
      <path class="cls-16" d="M93.36,147.47c-.4-.57-.65-1.19-.73-1.88,.7,.45,.97,1.06,.73,1.88Z"/>
      <path class="cls-5" d="M68.04,12.61s.04,0,.04,0c.11,.79,.57,.48,.99,.32-.24,.44-.48,.88-1,1.17-.21-.53-.06-1.01-.02-1.49Z"/>
      <path class="cls-5" d="M94.04,164.75c.04-.63-.18-1.32,.43-1.81-.03,.63-.19,1.23-.43,1.81Z"/>
      <path class="cls-11" d="M39.66,138.53c.08,.56,.32,1.16-.34,1.56-.03-.55,.04-1.08,.34-1.56Z"/>
      <path class="cls-11" d="M39.25,140.47c.07,.56,.25,1.15-.37,1.54-.1-.57,.09-1.07,.37-1.54Z"/>
      <path class="cls-12" d="M96.25,16.74c.48-.29,.81-.17,1.29-.17-.48,.31-.81,.17-1.29,.17Z"/>
      <path class="cls-8" d="M39.45,33.3c.18,.05,.44,.03,.38,.33-.02,.09-.13,.22-.22,.24-.21,.05-.24-.15-.31-.29,.05-.09,.11-.19,.16-.28Z"/>
      <path class="cls-10" d="M20.02,40.04c0,.51,.01,1.01,.02,1.52-.12-.5-.16-1.01-.02-1.52Z"/>
      <path class="cls-5" d="M69.53,12.16c0,.16,0,.32-.01,.48-.15,.09-.3,.18-.45,.27,.02-.33,.17-.59,.47-.76Z"/>
      <path class="cls-16" d="M77.69,102.18c-.18-.09-.32-.22-.31-.44,0-.04,.1-.07,.15-.1,.06,.17,.12,.35,.18,.52,0,0-.02,.02-.02,.02Z"/>
      <path class="cls-10" d="M66.41,40.87c.32-.11,.63-.12,.93,.05-.32,.12-.63,.13-.93-.05Z"/>
      <path class="cls-10" d="M20.1,38.49c-.02,.19-.04,.38-.06,.56-.08-.2-.08-.39,.06-.56Z"/>
      <path class="cls-3" d="M.45,6.46s-.09-.09-.14-.13c.18-.13,.12,.06,.15,.12,0,0-.02,.01-.02,.01Z"/>
      <path class="cls-2" d="M74.19,14.98c-.12,.11-.31,.17-.38,.04-.1-.18,.12-.19,.24-.24,.05,.07,.1,.14,.14,.2Z"/>
      <path class="cls-11" d="M40.5,143.64c.06-.15,.11-.3,.17-.45,.04,.19,0,.34-.17,.45Z"/>
      <path class="cls-4" d="M16.5,147.24c-.04,.05-.12,.11-.11,.15,.01,.05,.09,.09,.14,.13,.04-.05,.12-.11,.11-.14-.01-.05-.09-.09-.15-.13Z"/>
      <path class="cls-4" d="M73.41,102.17s-.07-.04-.1-.05c.03,.03,.05,.05,.08,.08,0,0,.02-.02,.02-.02Z"/>
      <path class="cls-5" d="M36.54,38.61c.09,0,.26-.15,.18,.11-.08,0-.14-.04-.18-.11Z"/>
      <path class="cls-4" d="M9.52,137.35c.08,.13,.16,.25,.23,.38-.17-.07-.23-.2-.23-.38Z"/>
      <path class="cls-4" d="M10.49,138.76s.02,.04,.02,.03c0,0-.02-.03-.02-.03Z"/>
      <path class="cls-5" d="M15.42,49.21l-.08-.06s.06,.04,.06,.04c0,0,.02,.01,.02,.01Z"/>
      <path class="cls-4" d="M20.84,130.97c.1,.06,.2,.12,.3,.17-.1-.06-.2-.12-.3-.17Z"/>
      <path class="cls-11" d="M40.32,143.99c.05-.11,.11-.22,.16-.33-.05,.11-.11,.22-.16,.33Z"/>
      <path class="cls-11" d="M37.76,99.66c.06-.06,.12-.13,.18-.19,.03,.15-.04,.2-.18,.19Z"/>
      <path class="cls-9" d="M69.53,31.85c-.12,1.78,.28,3.59-.23,5.36-1.92-.97-3.43-2.51-5.14-3.77-.54-.39-1.01-.87-1.83-1.58h7.2Z"/>
      <path class="cls-5" d="M68.86,22.04c.09,.07,.18,.13,.27,.2-7.22,.01-14.44,.02-21.66,.03-.64,0-1.27,.05-1.91,.08-.1-.11-.12-.23,0-.34,7.77,.01,15.54,.02,23.3,.03Z"/>
      <path class="cls-14" d="M96.42,29.45c-.01,.18-.03,.36-.04,.54-.46-.11-.85-.32-1.29-.73,.58-.31,.99-.35,1.33,.19Z"/>
      <path class="cls-5" d="M67.11,46.05c0,2.04,.02,4.08,.03,6.12-2.02-1.11-4.12-2.11-6-3.46,.43-.04,.87-.07,1.4-.11-1.04-1.7-2.73-2.51-4.18-3.56-4.15-3.03-8.38-5.95-12.58-8.91-.55-.39-.69-.92-.68-1.56,.04-1.69,.96-3.1,1.46-4.64,.18-.56,.54-.09,.73,.07,2.38,2.06,4.76,4.12,7.12,6.21,2.86,2.53,5.71,5.09,8.56,7.63,.74,.66,1.52,1.29,2.23,1.98,.6,.58,1.2,.7,1.91,.25Z"/>
      <path class="cls-9" d="M40.3,55.86c1.74-1.47,3.49-2.92,5.21-4.41,.45-.39,.88-.79,1.41-1.05,1.66,1.34,3.08,2.92,4.58,4.43,.38,.38,.28,.8,.29,1.22,.02,2.62,.02,5.24,.03,7.86,0,0-.01,0-.01,0-1.67,.02-3.33,.05-5,.05-.86,0-1.33-.44-1.34-1.32,0-.95-.11-1.92,.01-2.86,.2-1.5-.9-2.25-2.31-1.86-.63,.17-1.13,.11-1.67-.1-.4-.65-1.41-.95-1.19-1.97Z"/>
      <path class="cls-1" d="M49.34,48.67c2.17,0,4.34,.02,6.51,.03,.37,1.16,1.48,1.62,2.28,2.36,1.06,.97,2.21,1.84,3.34,2.73,.57,.45,.62,.79-.09,1.11-.76,.35-1.51,.72-2.27,1.08-.4,.19-.78,.18-1.12-.11-2.86-2.43-5.89-4.65-8.65-7.2Z"/>
      <path class="cls-1" d="M27.32,63.55c.04-.19,.16-.29,.35-.32,1.32,.71,2.65,1.4,3.95,2.15,.78,.44,1.25,.4,1.77-.46,.65-1.07,1.17-2.24,2.1-3.12,.43,.16,1.12-.27,1.3,.23,.18,.48-.18,1.07-.45,1.55-.13,.23-.39,.39-.59,.58-1.76,1.67-3.52,3.34-5.28,5.01-.13,.11-.46,.16-.22,.39,.15,.14,.37,0,.45-.22,.32-.23,.64-.46,.96-.7,1.83-1.39,3.53-2.95,5.5-4.15-.01,.46-.41,1.12,.49,1.14,1.39,.04,2.78,0,4.16,.02,.45,0,.63-.2,.63-.65,0-.49-.25-.59-.67-.58-1.54,.04-3.09,.06-4.63,.09q.63-2.52,2.62-2.69c.18,0,.36-.02,.54-.02,1.03,.04,2.05,.07,3.08,.11-.65,.73-1.51,.37-2.25,.34-1.23-.05-2.2,.42-3.17,.99l.03,.39c1.32,0,2.65,0,3.97,0,1.54,0,1.66,.19,.89,1.52-.04,.07-.09,.13-.12,.21-1.28,3.02-3.3,4.73-6.8,3.93-.26-.06-.56,0-.83,.06-.12,.03-.27,.18-.3,.31-.06,.23,.12,.39,.34,.39,1.75,0,3.51,0,5.26-.05,.36-.01,.54-.44,.75-.73,.66-.89,1.32-1.79,2.02-2.75,.31,.63,.14,1.08-.28,1.5-.37,.37-.75,.73-1.05,1.14-1.17,1.61-2.65,2.44-4.7,2.07-.82-.15-1.46,.31-2.06,.8-.15,.12-.32,.26-.26,.49,.07,.25,.3,.23,.49,.24,1.48,0,2.96,0,4.43-.02,.53,0,.83-.45,1.16-.78,.92-.92,1.82-1.87,2.81-2.88,.29,.63,0,.94-.27,1.19-1.07,.96-1.94,2.12-3.1,2.98-1.05,.78-1.01,1.21,.05,1.96,.49,.35,.98,.69,1.47,1.03q1.69,1.14,.84,3.01c-.44,.98-.85,1.98-1.28,2.96-1.72,3.25-3,6.7-4.56,10.02-.31,.67-.45,1.48-1.2,1.87-.24,.12-.45,.42-.74,.19-.23-.18-.07-.45,0-.67,.6-1.99,1.19-3.97,1.81-5.95,.18-.59,.28-1.13-.05-1.73-3.12-5.71-6.23-11.43-9.34-17.14-.02-1.75-.04-3.49-.06-5.24Z"/>
      <path class="cls-13" d="M19.68,64.03c1.69,1.25,2.78,3.07,4.29,4.49,1.2,1.12,2.06,2.56,3.31,3.64,0,6.57,0,13.14,.01,19.71-1.85,0-3.71-.06-5.56,0-1.11,.04-1.81-.19-1.74-1.49-.1,.24-.2,.48-.3,.72-.01-1.12-.04-2.23-.04-3.35,0-7.9,.02-15.81,.02-23.71Z"/>
      <path class="cls-13" d="M21.11,109.73c-1.09,2.63-1.99,5.34-3.35,7.86,0-4.86-.01-9.71-.02-14.57,0-.56-.04-1.11-.06-1.67-.09-.4-.03-.78,.12-1.16,1.03-2.63,2.23-5.22,1.85-8.17-.01-.11,.02-.24,.04-.35,.37,.48,.9,.42,1.42,.43,2.06,.06,4.13-.15,6.19,.15,.16,.98-.16,1.99,.18,2.95-.1,.3-.15,.63-.3,.9-2.3,4.42-3.77,9.22-6.08,13.64Z"/>
      <path class="cls-4" d="M21.11,109.73c2.31-4.42,3.77-9.21,6.08-13.64,.15-.28,.2-.6,.3-.9,.43-1.02,.84-2.05,1.31-3.06,.49-1.05,1.2-1.22,2.18-.56,.03,.02,.06,.05,.1,.07q2.19,1.45,.62,3.57c-.52,.7-1.01,1.42-1.52,2.13-.08,.11-.15,.22-.23,.33-.25,1.55-.23,3.11-.04,4.67,0,.35,.02,.71,.02,1.06-.65,.85-1.53,1.56-1.61,2.75-1.38,1.96-2.73,3.95-4.16,5.87-.86,1.15-1.37,2.56-2.61,3.41-.01-1.53-.02-3.06-.05-4.59,0-.41,.16-.89-.39-1.12Z"/>
      <path class="cls-2" d="M28.33,106.15c.09-1.18,.97-1.9,1.61-2.75,.25-.05,.59-.02,.38-.45,1.58-1.72,2.85-3.67,4.26-5.53,.5-.67,.98-1.34,1.57-1.94,.34-.34,.72-.54,1.02-.23,.34,.35-.02,.81-.24,1.12-.67,.93-1.4,1.8-2.1,2.7-.14,.19-.24,.41-.36,.61-.25,.35-.5,.69-.75,1.04-.07,.05-.08,.11-.02,.17-.15,.05-.23,.13-.18,.3,0,0-.07-.05-.07-.05-.72,.33-.86,1.11-1.27,1.68-.91,.95-1.56,2.08-2.22,3.2-.11,.05-.22,.11-.34,.16-.44-.01-.87-.03-1.31-.04Z"/>
      <path class="cls-14" d="M27.32,63.55c.02,1.75,.04,3.49,.06,5.24-.02,.81-.04,1.62-.07,2.43-.29-.12-.49-.36-.42-.65,.51-1.97-.27-3.95,.05-5.92,.06-.4,.1-.79,.38-1.1Z"/>
      <path class="cls-12" d="M27.3,92.23c-2.06-.3-4.13-.09-6.19-.15-.52-.01-1.05,.05-1.42-.43,0-.19,0-.37,0-.55,.1-.24,.2-.48,.3-.72-.07,1.3,.64,1.53,1.74,1.49,1.85-.06,3.7,0,5.56,0,0,.12,0,.24,0,.36Z"/>
      <path class="cls-16" d="M30.32,102.95c.2,.43-.14,.4-.38,.45,0-.35-.02-.71-.02-1.06,.01-1.56,.03-3.11,.04-4.67,.08-.11,.15-.22,.23-.33,.17,1.87-.15,3.75,.14,5.61Z"/>
      <path class="cls-12" d="M35.99,107.24c.08,.65-1.15,.93-.61,1.53,.28,.31,1.13,.09,1.72,.11-.13,.28-.39,.27-.61,.24-.6-.08-1.52,.35-1.72-.33-.2-.69,.54-1.22,1.21-1.54Z"/>
      <path class="cls-16" d="M32.18,102.83c.41-.57,.55-1.34,1.27-1.68,.19,1.02-.21,1.6-1.27,1.68Z"/>
      <path class="cls-16" d="M33.72,100.73c.25-.35,.5-.69,.75-1.04,.55,.46,.06,1.07,.31,1.61-.51-.03-.75-.35-1.05-.57Z"/>
      <path class="cls-12" d="M36.52,106.53c-.02,.36-.2,.59-.54,.7,.07-.32,.26-.54,.54-.7Z"/>
      <path class="cls-16" d="M33.52,101.2c-.05-.17,.03-.25,.18-.3-.06,.1-.12,.2-.18,.3Z"/>
      <path class="cls-4" d="M40.31,61.8c-.18,0-.36,.02-.54,.02-.19-.05-.39-.16-.57-.14-1.22,.15-1.27-.43-1.02-1.41,.4-1.61,.68-3.26,1.01-4.89,.03-.14,.07-.28,.1-.42,.46,.16,.72,.55,1.01,.9-.21,1.03,.79,1.32,1.2,1.97,.6,1.35,1.92,2.2,2.47,3.58-1.17,.56-2.47-.02-3.66,.38Z"/>
      <path class="cls-13" d="M40.31,61.8c1.19-.41,2.48,.17,3.66-.38,.22,.65-.33,.4-.58,.49-1.03-.04-2.05-.07-3.08-.11Z"/>
      <path class="cls-6" d="M68.86,22.04c-7.77-.01-15.54-.02-23.3-.03,0,0-.03-.1-.03-.1,6.91-.01,13.82-.03,20.73-.03,.87,0,1.76-.18,2.61,.16Z"/>
      <path class="cls-16" d="M44.89,45.29c-1.1-.17-1.89-.76-2.37-1.77,1.03,.26,1.65,1.08,2.37,1.77Z"/>
      <path class="cls-2" d="M44.11,20.85c-.77-.39-.38-.99-.27-1.55,.34,.46,.24,1.01,.28,1.53,0,0-.01,.01-.01,.01Z"/>
      <path class="cls-2" d="M19.7,91.1c0,.18,0,.37,0,.55-.01,.12-.05,.24-.04,.35,.38,2.95-.82,5.54-1.85,8.17-.15,.38-.21,.76-.12,1.16-.49-.13-.36,.59-.89,.58,0-3.32,0-6.64-.01-9.95,0-.36,.23-.8-.19-1.1,.06-.14,.13-.27,.19-.41,0-7.75,0-15.51-.01-23.26,.47-.45,.46-1.04,.51-1.63,.09-1.04,.45-1.98,1.4-2.57,.53,.16,.75,.61,1,1.03,0,7.91-.02,15.81-.02,23.71,0,1.12,.03,2.23,.04,3.35Z"/>
      <path class="cls-9" d="M16.24,133.12c.02,.12,.03,.24,.05,.36-.14,.05-.28,.11-.43,.16-.96-.18-1.92,.11-2.88,.05,0-.09,0-.19,0-.28,1.05-.48,2.18-.04,3.25-.29Z"/>
      <path class="cls-5" d="M35.49,61.8c-.93,.88-1.45,2.06-2.1,3.12-.52,.85-.99,.9-1.77,.46-1.3-.74-2.63-1.43-3.95-2.15q-1.83-.79-1.8-2.8c.02-1.47,.04-2.93,.06-4.4,.67,.9,1.83,.83,2.69,1.42,1.92,1.31,3.78,2.72,5.84,3.84,.35,.19,.68,.41,1.1,.37-.02,.04-.04,.09-.05,.14Z"/>
      <path class="cls-8" d="M28.33,106.15c.44,.01,.87,.03,1.31,.04,.21,4.77,.08,9.55,.07,14.32,0,1.16,.17,2.3,.25,3.45,.04,.56,.3,1.06,.76,1.43-.48,.54-.57,1.17-.57,1.88,.03,2.71,.01,5.41,0,8.12,0,.47,.09,.97-.31,1.35-.7-.69-.67-1.67-.99-2.51-.27-.72-.72-1.12-1.31-1.43-2.01-1.03-4.03-2.04-6.05-3.06,.03-3.04,.05-6.08,.08-9.12,.24-.1,.39-.27,.42-.53,.15-1.16-.13-2.35,.26-3.52,.09-.26-.2-.68-.68-.62-.21-.16-.13-.34-.03-.52,1.24-.85,1.76-2.27,2.61-3.41,1.43-1.92,2.78-3.91,4.16-5.87Z"/>
      <path class="cls-2" d="M29.84,136.73c.4-.38,.31-.88,.31-1.35,0-2.71,.02-5.41,0-8.12,0-.71,.09-1.34,.57-1.88,1.31,.8,2.2,2.09,3.45,2.97,.58,.41,.9,.57,1.45-.06,1.11-1.28,2.34-2.46,3.52-3.69q1.27-1.32,2.87-.45c.24,.13,.48,.27,.72,.41-1.11,1.44-2.59,2.49-3.86,3.76-2.42,2.43-4.81,4.9-7.27,7.29-.51,.5-.89,1.19-1.63,1.45-.04-.11-.09-.22-.13-.33Z"/>
      <path class="cls-11" d="M45.13,104.16c.48-1.51,.1-3.06,.18-4.58,.49,1.53,.09,3.1,.19,4.64-.12,.02-.25,.05-.37,.08-.01-.04-.01-.09,0-.13Z"/>
      <path class="cls-1" d="M9.83,63.53c.05-1.4,.99-2.45,1.5-3.67,.29-.7,.75-1.32,1.34-1.92-.17,2.74-.34,5.47-.5,8.21-.62-1.02-1.61-1.7-2.34-2.63Z"/>
      <path class="cls-5" d="M39.29,54.97c-.03,.14-.07,.28-.1,.42-.61,.24-.29,1.01-.76,1.33-.66,.09-1.29,.06-1.73-.54,0,0-.05-.1-.05-.1-.08-.56-.24-1.1-.64-1.52-.63-1.62-1.49-3.19-1.01-5.03,.31-.12,.58,0,.7,.27,.91,1.93,2.6,3.32,3.6,5.18Z"/>
      <path class="cls-1" d="M21.93,35.96c-.79,.06-1.59,.07-2.38,.19-2.02,.3-3.94,.08-5.78-.88-.45-.23-.62-.34-.39-.83,.26-.54,.36-1.19,.82-1.58,2.84-2.36,5.66-4.75,8.75-6.79,.31,.45,.82,.67,1.29,.83,.95,.33,.92,.89,.62,1.68-.51,1.3-1.05,2.59-1.39,3.94-.33,1.29-.98,1.93-2.32,1.79-.41-.08-.8-.12-1.3,.16,.53,.32,1,.29,1.45,.29,1.02,0,1.17,.41,.63,1.21Z"/>
      <path class="cls-11" d="M21.93,35.96c.54-.8,.39-1.21-.63-1.21-.45,0-.92,.03-1.45-.29,.49-.28,.89-.24,1.3-.16q1.63,.49,1.04,1.68c-.09,0-.17-.02-.26-.02Z"/>
      <path class="cls-5" d="M30.2,42.29c.31,.35,.62,.7,.94,1.05-.54,1.23-1.08,2.45-1.6,3.68-.65,1.51-1.98,2.33-3.21,3.26-.47-.42-.43-.88-.14-1.38,.74-1.26,1.34-2.63,2.24-3.75,.72-.9,.67-2.24,1.78-2.85Z"/>
      <path class="cls-13" d="M38.43,56.71c.47-.32,.15-1.09,.76-1.33-.33,1.63-.61,3.27-1.01,4.88-.25,.99-.2,1.56,1.02,1.41,.18-.02,.38,.09,.57,.14q-1.98,.17-2.62,2.69l.02-.02c-1.97,1.2-3.67,2.76-5.5,4.15-.32,.24-.64,.47-.96,.7l-.23-.17c1.76-1.67,3.52-3.34,5.28-5.01,.2-.19,.46-.35,.59-.58,.27-.48,.63-1.07,.45-1.55-.18-.5-.86-.07-1.3-.23,.01-.05,.03-.1,.05-.14,1.28,.18,1.86-.32,1.96-1.67,.08-1.12,.95-2.08,.93-3.28Z"/>
      <path class="cls-1" d="M21.5,24.64c.11,.4,.14,.85,.58,1.07-1.34,1.02-2.81,1.78-4.41,2.31,1.22-1.22,2.39-2.45,3.82-3.38Z"/>
      <path class="cls-1" d="M7.42,45.81c-.35-.37-.05-.5,.23-.63,.02,.25,.13,.53-.23,.63Z"/>
      <path class="cls-7" d="M21.57,115.95c.47-.06,.76,.36,.68,.62-.39,1.16-.12,2.35-.26,3.52-.03,.26-.19,.43-.42,.53,0-1.55,0-3.11,0-4.66Z"/>
      <path class="cls-4" d="M36,54.55c.4,.43,.56,.96,.64,1.52-.6-.17-.66-.78-.98-1.18,.11-.12,.22-.23,.34-.34Z"/>
      <path class="cls-11" d="M15.87,133.64c.14-.05,.28-.11,.43-.16,0,.1-.01,.2-.02,.29-.37,.35-.27,.81-.27,1.23-.01,1.19,0,2.37,0,3.56-.39-1.63-.06-3.28-.13-4.92Z"/>
      <path class="cls-6" d="M16,138.56c0-1.19-.01-2.37,0-3.56,0-.42-.1-.88,.27-1.23,0,0,.05,.03,.05,.03-.12,1.44-.12,2.87-.03,4.31-.02,.21-.04,.42-.05,.64-.08-.06-.16-.12-.25-.18Z"/>
      <path class="cls-2" d="M16.3,138.1c-.09-1.44-.09-2.87,.03-4.31,.21-.23,.42-.46,.62-.69h.29c-.35,2.17,.23,4.32-.13,6.65-.54-.55-.28-1.3-.81-1.65Z"/>
      <polygon class="cls-10" points="41.28 141.32 41.26 141.28 41.32 141.31 41.28 141.32"/>
      <path class="cls-2" d="M37.15,64.51c1.54-.03,3.09-.05,4.63-.09,.43-.01,.67,.09,.67,.58,0,.45-.18,.65-.63,.65-1.39,0-2.78,.02-4.16-.02-.9-.02-.5-.68-.49-1.14,0,0-.02,.02-.02,.02Z"/>
      <path class="cls-13" d="M30.71,69.34c-.08,.23-.3,.36-.45,.22-.25-.23,.08-.29,.22-.39,.08,.06,.16,.12,.23,.17Z"/>
      <path class="cls-5" d="M29.95,97.68c-.01,1.56-.03,3.11-.04,4.67-.19-1.56-.21-3.11,.04-4.67Z"/>
    </g>
  </g>
</svg>